<?xml version="1.0" encoding="UTF-8"?>
<svg width="53px" height="47px" viewBox="0 0 53 47" version="1.1" xmlns="http://www.w3.org/2000/svg" xmlns:xlink="http://www.w3.org/1999/xlink">
    <title>affiliates_1</title>
    <g id="Page-1" stroke="none" stroke-width="1" fill="none" fill-rule="evenodd">
        <g id="Affiliates---Empty-state" transform="translate(-675.000000, -412.000000)" stroke="#333333" stroke-width="1.44">
            <g id="affiliates_1" transform="translate(676.000000, 413.000000)">
                <g id="Group" transform="translate(19.000000, 0.000000)">
                    <path d="M10.828125,3.97058824 C10.828125,6.16348357 9.0652462,7.94117647 6.890625,7.94117647 C4.7160038,7.94117647 2.953125,6.16348357 2.953125,3.97058824 C2.953125,1.77769291 4.7160038,0 6.890625,0 C9.0652462,0 10.828125,1.77769291 10.828125,3.97058824 Z" id="Path"></path>
                    <path d="M14,15 L0,15 C0,11.1015194 3.13400675,7.94117647 7,7.94117647 C10.8659932,7.94117647 14,11.1015194 14,15 L14,15 Z" id="Path"></path>
                </g>
                <g id="Group" transform="translate(0.000000, 29.000000)">
                    <g id="Path">
                        <path d="M11.3393617,4.26666667 C11.2250042,6.43054658 9.42006397,8.13477777 7.21595745,8.16 C4.92991559,8.13081321 3.09236038,6.30071695 3.09255319,4.05333333 C3.09255319,1.81473915 4.93866416,0 7.21595745,0 C9.49325073,0 11.3393617,1.81473915 11.3393617,4.05333333 L11.3393617,4.26666667 Z"></path>
                        <path d="M14.7031915,15.5733333 L1.50588761e-16,15.5733333 C0.328128664,11.8221356 3.52146887,8.94139628 7.35159574,8.94139628 C11.1817226,8.94139628 14.3750628,11.8221356 14.7031915,15.5733333 Z"></path>
                    </g>
                    <g transform="translate(36.296809, 0.693333)">
                        <ellipse id="Oval" cx="7.21595745" cy="4.05333333" rx="4.12340426" ry="4.05333333"></ellipse>
                        <path d="M14.7031915,15.3066667 L0,15.3066667 C0.328128664,11.555469 3.52146887,8.67472961 7.35159574,8.67472961 C11.1817226,8.67472961 14.3750628,11.555469 14.7031915,15.3066667 Z" id="Path"></path>
                    </g>
                </g>
                <g id="Group" transform="translate(16.000000, 20.000000)">
                    <line x1="0" y1="14" x2="10" y2="7.21212121" id="Path"></line>
                    <line x1="20" y1="14" x2="10" y2="7.21212121" id="Path"></line>
                    <line x1="10" y1="0" x2="10" y2="7.21212121" id="Path"></line>
                </g>
            </g>
        </g>
    </g>
</svg>