<svg xmlns="http://www.w3.org/2000/svg" viewBox="0 0 36 36"><g><path d="M2 4.57C2 3.153 3.153 2 4.57 2h.555V0H4.57C2.05 0 0 2.05 0 4.57v.523h2V4.57zM0 8.916h2v6.69H0zM21.42 4.57v1.687h2V4.57c0-2.235-1.597-4.13-3.797-4.504l-.336 1.97c1.236.212 2.134 1.277 2.134 2.534zM2.033 19.266l-1.975.318c.36 2.224 2.257 3.837 4.512 3.837h1.655v-2H4.57c-1.268 0-2.336-.905-2.537-2.154zM8.947 0h6.69v2h-6.69zM31.43 12.58h-8.01v-2.5h-2v2.5h-4.27c-2.52 0-4.57 2.05-4.57 4.57v4.27h-2.5v2h2.5v8.01c0 2.52 2.05 4.57 4.57 4.57h14.28c2.52 0 4.57-2.05 4.57-4.57V17.15c0-2.52-2.05-4.57-4.57-4.57zM34 31.43c0 1.417-1.153 2.57-2.57 2.57H17.15c-1.418 0-2.57-1.153-2.57-2.57V17.15c0-1.418 1.152-2.57 2.57-2.57h14.28c1.417 0 2.57 1.152 2.57 2.57v14.28z"/></g></svg>