<?xml version="1.0" encoding="UTF-8"?>
<svg width="59px" height="44px" viewBox="0 0 59 44" version="1.1" xmlns="http://www.w3.org/2000/svg" xmlns:xlink="http://www.w3.org/1999/xlink">
    <title>commissions</title>
    <g id="Page-1" stroke="none" stroke-width="1" fill="none" fill-rule="evenodd">
        <g id="Commission-Payments---Empty-state" transform="translate(-691.000000, -481.000000)">
            <g id="commissions" transform="translate(691.000000, 482.000000)">
                <g id="Group" stroke="#333333" stroke-width="1.44">
                    <ellipse id="Oval" cx="45.3203463" cy="27.4574545" rx="12.6796537" ry="12.6341818"></ellipse>
                    <g id="Path">
                        <path d="M26.8658009,4.87854545 C26.8658009,7.568 21.530303,9.69454545 14.9393939,9.69454545 C8.34848485,9.69454545 3.13852814,7.50545455 3.13852814,4.87854545 C3.13852814,2.25163636 8.47402597,0 15.1277056,0 C21.7813853,0 26.8658009,2.12654545 26.8658009,4.87854545 Z"></path>
                        <path d="M26.8658009,12.8218182 C26.8658009,14.448 24.7943723,15.8865455 21.6558442,16.7621818 L21.6558442,16.7621818 C19.5176774,17.2607219 17.3220342,17.4710843 15.1277056,17.3876364 C12.8498148,17.4923555 10.5683524,17.2818665 8.34848485,16.7621818 L8.34848485,16.7621818 C5.20995671,15.8865455 3.13852814,14.448 3.13852814,12.8218182"></path>
                        <line x1="21.8441558" y1="16.7621818" x2="21.8441558" y2="16.7621818"></line>
                        <line x1="8.34848485" y1="16.7621818" x2="8.34848485" y2="16.7621818"></line>
                        <path d="M3.13852814,20.7650909 C3.13852814,22.4538182 5.20995671,23.8923636 8.34848485,24.768 L8.34848485,24.768 C10.5655377,25.3186664 12.8428363,25.5918027 15.1277056,25.5810909 C17.3916945,25.5885563 19.6478267,25.3154298 21.8441558,24.768 L21.8441558,24.768 C24.982684,23.6421818 26.8658009,22.4538182 26.8658009,20.7650909"></path>
                        <line x1="8.34848485" y1="24.768" x2="8.34848485" y2="24.768"></line>
                        <path d="M3.13852814,28.7709091 C3.13852814,30.6472727 5.96320346,32.336 9.91774892,33.0865455 L9.91774892,33.0865455 C11.6125735,33.4230403 13.3367969,33.5906539 15.0649351,33.5869091 C16.9187045,33.6131911 18.7701212,33.4454841 20.5887446,33.0865455 L20.5887446,33.0865455 C24.2922078,32.336 26.8658009,30.6472727 26.8658009,28.7709091"></path>
                        <line x1="21.8441558" y1="24.768" x2="21.8441558" y2="24.768"></line>
                        <path d="M3.13852814,37.4647273 C3.13852814,40.1541818 8.47402597,42.2807273 15.1277056,42.2807273 C21.7813853,42.2807273 26.8658009,40.1541818 26.8658009,37.4647273"></path>
                        <line x1="3.13852814" y1="4.816" x2="3.13852814" y2="37.4647273"></line>
                        <line x1="27.0541126" y1="4.816" x2="27.0541126" y2="37.4647273"></line>
                    </g>
                </g>
                <g id="$" transform="translate(41.867188, 20.859375)" fill="#333333" fill-rule="nonzero">
                    <path d="M7.4375,8.6015625 C7.4375,9.35677083 7.16145833,9.97916667 6.609375,10.46875 C6.05729167,10.9583333 5.26041667,11.2604167 4.21875,11.375 L4.21875,13.0703125 L3.1796875,13.0703125 L3.1796875,11.421875 C1.88802083,11.4010417 0.828125,11.203125 0,10.828125 L0,9.1796875 C0.447916667,9.3984375 0.971354167,9.58203125 1.5703125,9.73046875 C2.16927083,9.87890625 2.70572917,9.95572917 3.1796875,9.9609375 L3.1796875,7.0390625 L2.5234375,6.796875 C1.66927083,6.46875 1.04557292,6.07682292 0.65234375,5.62109375 C0.259114583,5.16536458 0.0625,4.6015625 0.0625,3.9296875 C0.0625,3.2109375 0.342447917,2.61979167 0.90234375,2.15625 C1.46223958,1.69270833 2.22135417,1.41145833 3.1796875,1.3125 L3.1796875,0 L4.21875,0 L4.21875,1.2890625 C5.27604167,1.32552083 6.27864583,1.5390625 7.2265625,1.9296875 L6.65625,3.359375 C5.83854167,3.03645833 5.02604167,2.84375 4.21875,2.78125 L4.21875,5.625 L4.8125,5.8515625 C5.80208333,6.23177083 6.48697917,6.6328125 6.8671875,7.0546875 C7.24739583,7.4765625 7.4375,7.9921875 7.4375,8.6015625 Z M5.59375,8.71875 C5.59375,8.41666667 5.48828125,8.16796875 5.27734375,7.97265625 C5.06640625,7.77734375 4.71354167,7.58854167 4.21875,7.40625 L4.21875,9.8984375 C5.13541667,9.7578125 5.59375,9.36458333 5.59375,8.71875 Z M1.8984375,3.9140625 C1.8984375,4.2109375 1.99088542,4.45833333 2.17578125,4.65625 C2.36067708,4.85416667 2.6953125,5.04947917 3.1796875,5.2421875 L3.1796875,2.8125 C2.76302083,2.875 2.4453125,3.00260417 2.2265625,3.1953125 C2.0078125,3.38802083 1.8984375,3.62760417 1.8984375,3.9140625 Z" id="Shape"></path>
                </g>
            </g>
        </g>
    </g>
</svg>