<?xml version="1.0" encoding="UTF-8"?>
<svg width="46px" height="46px" viewBox="0 0 46 46" version="1.1" xmlns="http://www.w3.org/2000/svg" xmlns:xlink="http://www.w3.org/1999/xlink">
    <title>Risorsa 4</title>
    <g id="Page-1" stroke="none" stroke-width="1" fill="none" fill-rule="evenodd">
        <g id="Rates---Empty-State" transform="translate(-692.000000, -482.000000)">
            <g id="Risorsa-4" transform="translate(692.000000, 482.000000)">
                <polyline id="Path" stroke="#333333" stroke-width="1.44" points="17.9320113 6 45 6 45 45 6 45 6 19.1473088"></polyline>
                <g id="Group" stroke="#333333" stroke-width="1.44">
                    <line x1="13" y1="6.5" x2="0" y2="6.5" id="Path"></line>
                    <line x1="6.5" y1="0" x2="6.5" y2="13" id="Path"></line>
                </g>
                <g id="%" transform="translate(19.269043, 16.708984)" fill="#333333" fill-rule="nonzero">
                    <path d="M0,3.82470703 C0,3.36669922 0.0854492188,2.9309082 0.256347656,2.51733398 C0.427246094,2.10375977 0.668212891,1.74145508 0.979248047,1.43041992 C1.2902832,1.11938477 1.66113281,0.873291016 2.09179688,0.692138672 C2.52246094,0.510986328 2.99414062,0.420410156 3.50683594,0.420410156 C4.01953125,0.420410156 4.49121094,0.510986328 4.921875,0.692138672 C5.35253906,0.873291016 5.72167969,1.11938477 6.02929688,1.43041992 C6.33691406,1.74145508 6.57788086,2.10375977 6.75219727,2.51733398 C6.92651367,2.9309082 7.01367188,3.36669922 7.01367188,3.82470703 C7.01367188,4.28955078 6.92993164,4.72705078 6.76245117,5.13720703 C6.5949707,5.54736328 6.35742188,5.90966797 6.04980469,6.22412109 C5.7421875,6.53857422 5.37304688,6.78637695 4.94238281,6.9675293 C4.51171875,7.14868164 4.03320312,7.23925781 3.50683594,7.23925781 C2.97363281,7.23925781 2.49169922,7.14868164 2.06103516,6.9675293 C1.63037109,6.78637695 1.26293945,6.53857422 0.958740234,6.22412109 C0.654541016,5.90966797 0.418701172,5.54736328 0.251220703,5.13720703 C0.0837402344,4.72705078 0,4.28955078 0,3.82470703 Z M3.50683594,2.10205078 C3.26074219,2.10205078 3.0300293,2.14477539 2.81469727,2.23022461 C2.59936523,2.31567383 2.41137695,2.43530273 2.25073242,2.58911133 C2.09008789,2.74291992 1.96362305,2.92578125 1.87133789,3.13769531 C1.77905273,3.34960938 1.73291016,3.57861328 1.73291016,3.82470703 C1.73291016,4.06396484 1.77905273,4.29125977 1.87133789,4.5065918 C1.96362305,4.72192383 2.09008789,4.90991211 2.25073242,5.07055664 C2.41137695,5.23120117 2.59936523,5.35766602 2.81469727,5.44995117 C3.0300293,5.54223633 3.26074219,5.58837891 3.50683594,5.58837891 C3.74609375,5.58837891 3.97167969,5.54223633 4.18359375,5.44995117 C4.39550781,5.35766602 4.58007812,5.23291016 4.73730469,5.07568359 C4.89453125,4.91845703 5.01928711,4.73217773 5.11157227,4.5168457 C5.20385742,4.30151367 5.25,4.07080078 5.25,3.82470703 C5.25,3.57861328 5.20385742,3.34960938 5.11157227,3.13769531 C5.01928711,2.92578125 4.89453125,2.74291992 4.73730469,2.58911133 C4.58007812,2.43530273 4.39550781,2.31567383 4.18359375,2.23022461 C3.97167969,2.14477539 3.74609375,2.10205078 3.50683594,2.10205078 Z M12.0688477,0 L14.0683594,0 L3.39404297,15.9550781 L1.40478516,15.9550781 L12.0688477,0 Z M8.87988281,12.4790039 C8.87988281,12.0209961 8.96533203,11.5869141 9.13623047,11.1767578 C9.30712891,10.7666016 9.5480957,10.4060059 9.85913086,10.0949707 C10.170166,9.78393555 10.5410156,9.53613281 10.9716797,9.3515625 C11.4023438,9.16699219 11.8740234,9.07470703 12.3867188,9.07470703 C12.8994141,9.07470703 13.3710938,9.16699219 13.8017578,9.3515625 C14.2324219,9.53613281 14.6032715,9.78393555 14.9143066,10.0949707 C15.2253418,10.4060059 15.4663086,10.7666016 15.637207,11.1767578 C15.8081055,11.5869141 15.8935547,12.0209961 15.8935547,12.4790039 C15.8935547,12.9438477 15.8098145,13.3830566 15.642334,13.7966309 C15.4748535,14.2102051 15.2390137,14.5725098 14.9348145,14.8835449 C14.6306152,15.1945801 14.2631836,15.4423828 13.8325195,15.6269531 C13.4018555,15.8115234 12.9199219,15.9038086 12.3867188,15.9038086 C11.8535156,15.9038086 11.371582,15.8115234 10.940918,15.6269531 C10.5102539,15.4423828 10.1428223,15.1945801 9.83862305,14.8835449 C9.53442383,14.5725098 9.29858398,14.2102051 9.13110352,13.7966309 C8.96362305,13.3830566 8.87988281,12.9438477 8.87988281,12.4790039 Z M12.3867188,10.7563477 C12.1474609,10.7563477 11.920166,10.8007812 11.704834,10.8896484 C11.489502,10.9785156 11.3015137,11.0998535 11.1408691,11.2536621 C10.9802246,11.4074707 10.8537598,11.588623 10.7614746,11.7971191 C10.6691895,12.0056152 10.6230469,12.2329102 10.6230469,12.4790039 C10.6230469,12.7182617 10.6691895,12.9455566 10.7614746,13.1608887 C10.8537598,13.3762207 10.9802246,13.564209 11.1408691,13.7248535 C11.3015137,13.885498 11.489502,14.0119629 11.704834,14.104248 C11.920166,14.1965332 12.1474609,14.2426758 12.3867188,14.2426758 C12.6259766,14.2426758 12.8515625,14.1965332 13.0634766,14.104248 C13.2753906,14.0119629 13.4599609,13.887207 13.6171875,13.7299805 C13.7744141,13.5727539 13.8991699,13.3864746 13.9914551,13.1711426 C14.0837402,12.9558105 14.1298828,12.7250977 14.1298828,12.4790039 C14.1298828,12.2329102 14.0837402,12.0056152 13.9914551,11.7971191 C13.8991699,11.588623 13.7744141,11.4074707 13.6171875,11.2536621 C13.4599609,11.0998535 13.2753906,10.9785156 13.0634766,10.8896484 C12.8515625,10.8007812 12.6259766,10.7563477 12.3867188,10.7563477 Z" id="Shape"></path>
                </g>
            </g>
        </g>
    </g>
</svg>