<svg width="281" height="208" viewBox="0 0 281 208" fill="none" xmlns="http://www.w3.org/2000/svg">
<path d="M280.075 182.787H0.925293V182.927H280.075V182.787Z" fill="#EBEBEB"/>
<path d="M252.104 191.771H233.613V191.91H252.104V191.771Z" fill="#EBEBEB"/>
<path d="M185.845 193.289H180.994V193.428H185.845V193.289Z" fill="#EBEBEB"/>
<path d="M233.055 186.589H222.341V186.728H233.055V186.589Z" fill="#EBEBEB"/>
<path d="M54.3263 187.527H30.2134V187.667H54.3263V187.527Z" fill="#EBEBEB"/>
<path d="M62.8353 187.527H59.3013V187.667H62.8353V187.527Z" fill="#EBEBEB"/>
<path d="M126.626 189.883H74.3247V190.022H126.626V189.883Z" fill="#EBEBEB"/>
<path d="M133.243 157.887H25.4406C24.5961 157.886 23.7867 157.549 23.19 156.951C22.5934 156.354 22.2583 155.544 22.2583 154.699V3.15997C22.2657 2.32031 22.604 1.51745 23.1998 0.925782C23.7957 0.334119 24.6009 0.0014384 25.4406 0H133.243C134.088 0 134.899 0.335866 135.497 0.933711C136.095 1.53156 136.431 2.34241 136.431 3.18789V154.699C136.431 155.545 136.095 156.356 135.497 156.953C134.899 157.551 134.088 157.887 133.243 157.887ZM25.4406 0.11166C24.6331 0.113139 23.8592 0.434952 23.2887 1.00646C22.7183 1.57797 22.3979 2.35248 22.3979 3.15997V154.699C22.3979 155.507 22.7183 156.281 23.2887 156.853C23.8592 157.424 24.6331 157.746 25.4406 157.747H133.243C134.051 157.746 134.825 157.424 135.396 156.853C135.968 156.282 136.289 155.507 136.291 154.699V3.15997C136.289 2.35196 135.968 1.57747 135.396 1.00612C134.825 0.43477 134.051 0.113136 133.243 0.11166H25.4406Z" fill="#EBEBEB"/>
<path d="M254.008 157.887H146.2C145.355 157.886 144.545 157.549 143.948 156.952C143.35 156.354 143.014 155.544 143.012 154.699V3.15997C143.021 2.3198 143.361 1.51694 143.957 0.925433C144.554 0.333924 145.36 0.00142271 146.2 0H254.008C254.846 0.00290567 255.65 0.336235 256.245 0.927742C256.84 1.51925 257.177 2.32127 257.184 3.15997V154.699C257.184 155.543 256.85 156.352 256.255 156.949C255.659 157.547 254.851 157.884 254.008 157.887ZM146.2 0.11166C145.392 0.113136 144.618 0.43477 144.046 1.00612C143.475 1.57747 143.153 2.35196 143.152 3.15997V154.699C143.153 155.507 143.475 156.282 144.046 156.853C144.618 157.424 145.392 157.746 146.2 157.747H254.008C254.816 157.746 255.59 157.424 256.162 156.853C256.733 156.282 257.055 155.507 257.056 154.699V3.15997C257.055 2.35196 256.733 1.57747 256.162 1.00612C255.59 0.43477 254.816 0.113136 254.008 0.11166H146.2Z" fill="#EBEBEB"/>
<path d="M100.939 104.787L230.291 104.787V18.7699L100.939 18.7699V104.787Z" fill="#E6E6E6"/>
<path d="M98.9347 104.787L228.287 104.787V18.7699L98.9347 18.7699V104.787Z" fill="#F5F5F5"/>
<path d="M224.692 100.745V22.8008L102.525 22.8008V100.745L224.692 100.745Z" fill="white"/>
<path d="M104.043 100.751V22.8066H102.53V100.751H104.043Z" fill="#E6E6E6"/>
<path d="M100.42 81.9355L226.802 81.9355V76.5145L100.42 76.5145V81.9355Z" fill="#F5F5F5"/>
<g opacity="0.4">
<path opacity="0.4" d="M107.13 14.5215H94.9204V87.2902H107.13V14.5215Z" fill="#E6E6E6"/>
<path opacity="0.4" d="M107.136 81.4448H113.188L113.188 14.5215H107.136L107.136 81.4448Z" fill="#F5F5F5"/>
<path opacity="0.4" d="M125.398 14.5215H113.188V87.2902H125.398V14.5215Z" fill="#E6E6E6"/>
<path opacity="0.4" d="M125.404 81.4448H131.456V14.5215H125.404L125.404 81.4448Z" fill="#F5F5F5"/>
<path opacity="0.4" d="M143.666 14.5215H131.456V87.2902H143.666V14.5215Z" fill="#E6E6E6"/>
<path opacity="0.4" d="M143.671 81.4448H149.723V14.5215H143.671V81.4448Z" fill="#F5F5F5"/>
<path opacity="0.4" d="M161.933 14.5215H149.723V87.2902H161.933V14.5215Z" fill="#E6E6E6"/>
<path opacity="0.4" d="M161.938 81.4448H167.99V14.5215H161.938V81.4448Z" fill="#F5F5F5"/>
<path opacity="0.4" d="M180.2 14.5215H167.99V87.2902H180.2V14.5215Z" fill="#E6E6E6"/>
<path opacity="0.4" d="M180.2 81.4448H186.252V14.5215H180.2V81.4448Z" fill="#F5F5F5"/>
<path opacity="0.4" d="M198.462 14.5215H186.252V87.2902H198.462V14.5215Z" fill="#E6E6E6"/>
<path opacity="0.4" d="M198.469 81.4448H204.521V14.5215H198.469V81.4448Z" fill="#F5F5F5"/>
<path opacity="0.4" d="M216.731 14.5215H204.521V87.2902H216.731V14.5215Z" fill="#E6E6E6"/>
<path opacity="0.4" d="M216.736 81.4448H222.788V14.5215H216.736V81.4448Z" fill="#F5F5F5"/>
<path opacity="0.4" d="M234.998 14.5215H222.788V87.2902H234.998V14.5215Z" fill="#E6E6E6"/>
</g>
<path d="M47.1471 182.787H75.7822L75.7822 123.942H47.1471L47.1471 182.787Z" fill="#EBEBEB"/>
<path d="M52.5843 182.787H47.1465V170.801H58.2901L52.5843 182.787Z" fill="#F5F5F5"/>
<path d="M210.528 182.787H239.163V123.942H210.528V182.787Z" fill="#EBEBEB"/>
<path d="M47.1472 175.435L215.273 175.435V123.943L47.1472 123.943V175.435Z" fill="#F5F5F5"/>
<path d="M209.684 160.907H159.845C159.724 160.907 159.607 160.859 159.521 160.773C159.435 160.687 159.387 160.571 159.387 160.45V127.85C159.387 127.729 159.435 127.613 159.521 127.527C159.607 127.441 159.724 127.393 159.845 127.393H169.046C169.144 127.391 169.241 127.422 169.319 127.482C170.687 128.482 172.204 129.26 173.814 129.788C175.755 130.431 177.787 130.755 179.832 130.748H189.692C193.463 130.814 197.158 129.676 200.238 127.499C200.315 127.44 200.409 127.408 200.506 127.409H209.712C209.834 127.409 209.95 127.458 210.036 127.544C210.122 127.629 210.17 127.746 210.17 127.867V160.45C210.17 160.512 210.158 160.574 210.133 160.631C210.108 160.689 210.072 160.741 210.026 160.784C209.981 160.826 209.927 160.86 209.868 160.881C209.809 160.902 209.747 160.911 209.684 160.907ZM160.303 159.992H209.227V128.325H200.629C197.424 130.559 193.598 131.73 189.692 131.675H179.832C177.688 131.682 175.558 131.34 173.523 130.664C171.872 130.122 170.313 129.332 168.901 128.319H160.303V159.992Z" fill="#E6E6E6"/>
<path d="M156.133 160.907H106.288C106.166 160.907 106.05 160.859 105.964 160.773C105.878 160.687 105.83 160.571 105.83 160.45V127.85C105.83 127.729 105.878 127.613 105.964 127.527C106.05 127.441 106.166 127.393 106.288 127.393H114.992C115.09 127.391 115.187 127.422 115.265 127.482C116.623 128.481 118.131 129.259 119.732 129.788C121.673 130.431 123.705 130.755 125.75 130.748H135.61C139.368 130.803 143.047 129.659 146.111 127.482C146.191 127.424 146.287 127.392 146.385 127.393H156.133C156.193 127.392 156.253 127.403 156.309 127.426C156.365 127.449 156.416 127.482 156.458 127.525C156.501 127.568 156.535 127.619 156.557 127.674C156.58 127.73 156.591 127.79 156.591 127.85V160.433C156.593 160.494 156.583 160.556 156.561 160.613C156.539 160.671 156.505 160.723 156.463 160.767C156.42 160.812 156.369 160.847 156.312 160.871C156.255 160.895 156.194 160.907 156.133 160.907ZM106.751 159.992H155.675V128.325H146.564C143.362 130.558 139.541 131.73 135.638 131.675H125.778C123.634 131.682 121.504 131.34 119.469 130.664C117.815 130.126 116.254 129.335 114.841 128.319H106.746L106.751 159.992Z" fill="#E6E6E6"/>
<path d="M102.575 160.907H52.7357C52.6143 160.907 52.4978 160.859 52.412 160.773C52.3261 160.687 52.2779 160.571 52.2779 160.45V127.85C52.2771 127.79 52.2884 127.73 52.3112 127.674C52.3339 127.619 52.3676 127.568 52.4103 127.525C52.4529 127.482 52.5037 127.449 52.5596 127.426C52.6155 127.403 52.6753 127.392 52.7357 127.393H61.4396C61.5364 127.391 61.6308 127.423 61.7075 127.482C63.0667 128.479 64.5738 129.257 66.1739 129.788C68.1171 130.431 70.1513 130.755 72.198 130.748H82.0576C85.8196 130.803 89.5015 129.659 92.5703 127.482C92.6488 127.422 92.7452 127.391 92.8439 127.393H102.547C102.669 127.393 102.785 127.441 102.871 127.527C102.957 127.613 103.005 127.729 103.005 127.85V160.433C103.01 160.552 102.967 160.669 102.887 160.758C102.806 160.846 102.695 160.9 102.575 160.907ZM53.1935 159.992H102.117V128.325H93.0449C89.8414 130.558 86.018 131.73 82.1134 131.675H72.2259C70.0821 131.683 67.9513 131.341 65.9171 130.664C64.2627 130.126 62.7015 129.335 61.2888 128.319H53.1935V159.992Z" fill="#E6E6E6"/>
<path d="M209.835 182.787H215.273V170.801H204.135L209.835 182.787Z" fill="#F5F5F5"/>
<path d="M81.2868 114.083H76.7702C76.8037 110.956 76.7702 103.017 76.4519 84.8332C75.8936 51.8935 74.8496 49.8613 74.8496 49.8613L80.2037 66.1302C81.475 69.9563 82.2151 73.9387 82.4034 77.9661C82.9952 90.6507 80.762 100.778 81.2868 114.083Z" fill="#E6E6E6"/>
<path d="M84.7208 61.2231C90.7448 52.1061 102.771 47.3494 115.064 42.8718C119.888 41.1132 106.344 62.9259 96.4953 72.819C88.8466 80.5012 81.4212 80.3281 79.2271 87.8931C78.8028 79.1054 79.5286 69.0784 84.7208 61.2231Z" fill="#E6E6E6"/>
<path d="M77.8199 55.372C73.0967 44.7085 61.1659 30.8794 47.7555 21.1371C42.4907 17.3128 55.4824 50.1687 64.6441 63.6014C71.7791 74.075 78.4341 80.4508 79.4725 87.9209C83.9724 78.5749 82.5376 66.0299 77.8199 55.372Z" fill="#E6E6E6"/>
<path d="M78.2666 123.942C80.8198 123.942 83.2763 122.965 85.1324 121.212C86.9885 119.459 88.1036 117.062 88.249 114.512L89.1367 105.474H67.3965L68.2786 114.512C68.4254 117.062 69.5416 119.459 71.3986 121.212C73.2556 122.965 75.7127 123.942 78.2666 123.942Z" fill="#F0F0F0"/>
<path d="M65.9891 105.524H90.5431L91.2466 102.314H65.2856L65.9891 105.524Z" fill="#F0F0F0"/>
<path d="M67.2009 111.029H89.3319L89.9684 107.819H66.5645L67.2009 111.029Z" fill="#F0F0F0"/>
<path d="M140.501 208C200.285 208 248.749 205.17 248.749 201.68C248.749 198.189 200.285 195.36 140.501 195.36C80.7165 195.36 32.252 198.189 32.252 201.68C32.252 205.17 80.7165 208 140.501 208Z" fill="#F5F5F5"/>
<path d="M227.193 147.017H53.8018V166.647H227.193V147.017Z" fill="black"/>
<path opacity="0.3" d="M227.198 147.017H190.004V166.647H227.198V147.017Z" fill="black"/>
<path d="M72.9458 166.647H53.8018V201.68H72.9458V166.647Z" fill="black"/>
<path opacity="0.3" d="M53.8076 166.647V168.607L67.3631 172.699V201.68H72.9461V166.647H53.8076Z" fill="black"/>
<path d="M227.198 166.647H208.054V201.68H227.198V166.647Z" fill="black"/>
<path opacity="0.2" d="M227.198 166.647H208.054V201.68H227.198V166.647Z" fill="black"/>
<path opacity="0.3" d="M208.054 166.647V168.607L221.615 172.699V201.68H227.198V166.647H208.054Z" fill="black"/>
<path d="M190.004 166.647H170.86V201.68H190.004V166.647Z" fill="black"/>
<path opacity="0.3" d="M170.86 166.647V168.607L184.421 172.699V201.68H190.004V166.647H170.86Z" fill="black"/>
<path d="M110.14 166.647H90.9956V201.68H110.14V166.647Z" fill="black"/>
<path opacity="0.2" d="M110.14 166.647H90.9956V201.68H110.14V166.647Z" fill="black"/>
<path opacity="0.3" d="M90.9956 166.647V168.607L104.557 172.699V201.68H110.14V166.647H90.9956Z" fill="black"/>
<path d="M203.298 143.159H97.2878C96.9574 143.162 96.6301 143.096 96.3266 142.965C96.0231 142.835 95.7499 142.643 95.5243 142.402C95.2987 142.16 95.1256 141.875 95.0159 141.563C94.9062 141.252 94.8624 140.921 94.8871 140.591L99.253 71.3119C99.3083 70.6214 99.6183 69.9761 100.123 69.5015C100.627 69.0268 101.29 68.7567 101.983 68.7437H207.987C208.318 68.7413 208.645 68.8073 208.948 68.9377C209.252 69.0681 209.525 69.2601 209.751 69.5014C209.976 69.7427 210.15 70.0282 210.259 70.3399C210.369 70.6515 210.413 70.9825 210.388 71.3119L206.022 140.591C205.967 141.281 205.658 141.925 205.154 142.4C204.651 142.874 203.989 143.145 203.298 143.159Z" fill="#263238"/>
<path opacity="0.6" d="M203.298 143.159H97.2878C96.9574 143.162 96.6301 143.096 96.3266 142.965C96.0231 142.835 95.7499 142.643 95.5243 142.402C95.2987 142.16 95.1256 141.875 95.0159 141.563C94.9062 141.252 94.8624 140.921 94.8871 140.591L99.253 71.3119C99.3083 70.6214 99.6183 69.9761 100.123 69.5015C100.627 69.0268 101.29 68.7567 101.983 68.7437H207.987C208.318 68.7413 208.645 68.8073 208.948 68.9377C209.252 69.0681 209.525 69.2601 209.751 69.5014C209.976 69.7427 210.15 70.0282 210.259 70.3399C210.369 70.6515 210.413 70.9825 210.388 71.3119L206.022 140.591C205.967 141.281 205.658 141.925 205.154 142.4C204.651 142.874 203.989 143.145 203.298 143.159Z" fill="black"/>
<path d="M202.505 143.16H96.5009C96.17 143.163 95.8422 143.097 95.538 142.967C95.2338 142.837 94.9599 142.645 94.7337 142.404C94.5075 142.162 94.3339 141.877 94.2239 141.565C94.1139 141.253 94.0698 140.921 94.0946 140.591L98.4605 71.3119C98.5158 70.6214 98.8258 69.9762 99.3304 69.5015C99.835 69.0269 100.498 68.7568 101.191 68.7438H207.195C207.525 68.7405 207.853 68.8059 208.157 68.9361C208.461 69.0662 208.735 69.2581 208.96 69.4996C209.186 69.7412 209.359 70.027 209.468 70.339C209.578 70.651 209.621 70.9823 209.596 71.3119L205.23 140.591C205.174 141.281 204.865 141.925 204.362 142.4C203.858 142.874 203.197 143.145 202.505 143.16Z" fill="#263238"/>
<path d="M202.371 144.042H76.2344C75.6537 144.036 75.0834 144.196 74.5894 144.501C74.0954 144.806 73.6979 145.245 73.4429 145.767C73.3782 145.902 73.3493 146.052 73.3587 146.202C73.3681 146.352 73.4156 146.497 73.4966 146.623C73.5777 146.749 73.6896 146.853 73.8219 146.924C73.9541 146.995 74.1023 147.031 74.2524 147.029H204.325C204.475 147.031 204.623 146.995 204.755 146.924C204.888 146.853 205 146.749 205.081 146.623C205.162 146.497 205.209 146.352 205.219 146.202C205.228 146.052 205.199 145.902 205.134 145.767C204.883 145.249 204.49 144.812 204.001 144.507C203.512 144.201 202.947 144.04 202.371 144.042Z" fill="#263238"/>
<path opacity="0.6" d="M202.371 144.042H184.432C183.856 144.04 183.291 144.2 182.802 144.506C182.313 144.811 181.92 145.248 181.669 145.767C181.604 145.902 181.576 146.051 181.585 146.2C181.594 146.35 181.641 146.494 181.721 146.62C181.802 146.747 181.913 146.85 182.044 146.922C182.176 146.993 182.323 147.03 182.473 147.028H204.325C204.475 147.031 204.623 146.995 204.755 146.924C204.887 146.853 204.999 146.749 205.08 146.623C205.162 146.496 205.209 146.351 205.218 146.202C205.228 146.052 205.199 145.902 205.134 145.767C204.882 145.248 204.489 144.812 204.001 144.507C203.512 144.201 202.947 144.04 202.371 144.042Z" fill="black"/>
<path d="M191.249 146.219H186.615C186.508 146.217 186.406 146.174 186.331 146.098C186.256 146.021 186.213 145.919 186.213 145.811C186.213 145.704 186.256 145.601 186.331 145.525C186.406 145.449 186.508 145.405 186.615 145.404H191.249C191.303 145.404 191.356 145.414 191.405 145.435C191.455 145.455 191.5 145.485 191.537 145.523C191.575 145.561 191.605 145.606 191.626 145.655C191.646 145.705 191.657 145.758 191.657 145.811C191.657 145.865 191.646 145.918 191.626 145.967C191.605 146.017 191.575 146.062 191.537 146.1C191.5 146.137 191.455 146.167 191.405 146.188C191.356 146.208 191.303 146.219 191.249 146.219Z" fill="black"/>
<path opacity="0.7" d="M131.662 146.219H127.034C126.926 146.219 126.822 146.176 126.746 146.1C126.669 146.023 126.626 145.919 126.626 145.811C126.626 145.758 126.637 145.705 126.657 145.655C126.678 145.606 126.708 145.561 126.746 145.523C126.784 145.485 126.829 145.455 126.878 145.435C126.928 145.414 126.981 145.404 127.034 145.404H131.662C131.716 145.404 131.769 145.414 131.818 145.435C131.868 145.455 131.913 145.485 131.951 145.523C131.988 145.561 132.018 145.606 132.039 145.655C132.059 145.705 132.07 145.758 132.07 145.811C132.07 145.919 132.027 146.023 131.951 146.1C131.874 146.176 131.77 146.219 131.662 146.219Z" fill="white"/>
<path d="M196.045 145.404H193.014C192.829 145.404 192.679 145.554 192.679 145.739V145.884C192.679 146.069 192.829 146.219 193.014 146.219H196.045C196.23 146.219 196.38 146.069 196.38 145.884V145.739C196.38 145.554 196.23 145.404 196.045 145.404Z" fill="black"/>
<path d="M96.4835 138.09L100.537 73.8132C100.558 73.5451 100.678 73.2944 100.874 73.1105C101.071 72.9266 101.329 72.8228 101.597 72.8194H206.273C206.401 72.8175 206.529 72.8424 206.647 72.8924C206.765 72.9425 206.871 73.0167 206.959 73.1102C207.047 73.2038 207.114 73.3146 207.156 73.4357C207.199 73.5568 207.216 73.6853 207.205 73.8132L203.158 138.09C203.136 138.359 203.014 138.61 202.817 138.793C202.62 138.977 202.361 139.081 202.091 139.084H97.4214C97.2932 139.085 97.1661 139.06 97.0481 139.009C96.9301 138.959 96.8238 138.885 96.7358 138.792C96.6477 138.698 96.5799 138.588 96.5365 138.467C96.4931 138.347 96.475 138.218 96.4835 138.09Z" fill="white"/>
<path opacity="0.1" d="M156.032 70.8374L121.166 137.108H95.4452C95.3162 137.109 95.1882 137.084 95.0694 137.034C94.9507 136.984 94.8437 136.909 94.7554 136.815C94.6671 136.721 94.5994 136.61 94.5567 136.488C94.514 136.366 94.4971 136.237 94.5072 136.108L98.5605 71.8368C98.5813 71.5681 98.7015 71.3168 98.8977 71.132C99.0938 70.9472 99.3518 70.8422 99.6213 70.8374H156.032Z" fill="black"/>
<path opacity="0.1" d="M186.565 70.8374L151.7 137.108H143.571L178.437 70.8374H186.565Z" fill="black"/>
<path opacity="0.1" d="M205.229 71.8366L201.176 136.108C201.157 136.377 201.037 136.629 200.84 136.814C200.644 136.999 200.385 137.104 200.115 137.107H160.476L195.342 70.8372H204.275C204.405 70.8338 204.534 70.8576 204.655 70.9072C204.775 70.9568 204.884 71.0311 204.974 71.1252C205.064 71.2194 205.133 71.3313 205.177 71.4538C205.221 71.5763 205.239 71.7067 205.229 71.8366Z" fill="black"/>
<path opacity="0.4" d="M154.809 70.9041C154.794 71.1066 154.704 71.2962 154.556 71.4356C154.408 71.575 154.214 71.6543 154.011 71.6578C153.914 71.6589 153.818 71.6398 153.729 71.6016C153.639 71.5635 153.559 71.5071 153.493 71.4362C153.427 71.3653 153.376 71.2813 153.344 71.1897C153.312 71.0981 153.3 71.0008 153.307 70.9041C153.321 70.7012 153.411 70.5109 153.559 70.3713C153.707 70.2316 153.902 70.1528 154.106 70.1504C154.203 70.1493 154.299 70.1685 154.388 70.2067C154.477 70.2448 154.558 70.3012 154.624 70.3721C154.69 70.443 154.741 70.527 154.773 70.6186C154.805 70.7102 154.817 70.8074 154.809 70.9041Z" fill="white"/>
<path d="M137.513 55.4893C134.46 58.9843 132.695 69.698 134.956 74.9684C137.218 80.2387 110.983 85.5147 132.628 94.079C154.274 102.643 171.586 92.7111 165.322 83.8398C159.058 74.9684 165.998 60.1958 158.746 56.4831C152.191 53.0998 143.632 48.4827 137.513 55.4893Z" fill="#263238"/>
<path d="M131.043 98.6293C129.898 102.537 128.681 106.445 127.419 110.354C126.158 114.262 124.846 118.125 123.455 122.005L122.925 123.468L122.657 124.199L122.573 124.417L122.439 124.747C122.356 124.959 122.227 125.188 122.115 125.405C121.57 126.402 120.755 127.226 119.765 127.784C118.866 128.272 117.862 128.536 116.84 128.554C115.405 128.561 113.983 128.282 112.658 127.733C111.573 127.293 110.522 126.772 109.515 126.176C105.854 123.925 102.499 121.211 99.5322 118.103L101.938 115.267C102.748 115.786 103.613 116.339 104.451 116.858C105.288 117.377 106.165 117.879 107.013 118.376C108.676 119.349 110.393 120.227 112.155 121.006C112.958 121.36 113.787 121.653 114.634 121.882C115.22 122.077 115.839 122.149 116.454 122.095C116.611 122.095 116.583 122.005 116.454 122.056C116.326 122.106 116.186 122.251 116.181 122.234C116.175 122.217 116.181 122.234 116.181 122.201C116.183 122.19 116.183 122.178 116.181 122.167L116.225 122.028L116.438 121.307L116.867 119.856L120.279 108.132C121.44 104.223 122.635 100.315 123.863 96.4072L131.043 98.6293Z" fill="#FFBDA7"/>
<path d="M101.765 115.178L95.2778 112.777L97.8516 119.633C97.8516 119.633 102.43 120.292 104.205 117.885L102.759 115.948C102.508 115.601 102.163 115.334 101.765 115.178Z" fill="#F0997A"/>
<path d="M89.5552 114.77L92.0229 120.392L97.8794 119.622L95.3001 112.766L89.5552 114.77Z" fill="#F0997A"/>
<path d="M126.308 88.5188C123.338 89.2725 121.283 101.482 121.283 101.482L129.462 107.065C129.462 107.065 137.278 94.7494 135.017 91.4889C132.617 88.0665 130.635 87.4189 126.308 88.5188Z" fill="black"/>
<path opacity="0.5" d="M126.308 88.5188C123.338 89.2725 121.283 101.482 121.283 101.482L129.462 107.065C129.462 107.065 137.278 94.7494 135.017 91.4889C132.617 88.0665 130.635 87.4189 126.308 88.5188Z" fill="white"/>
<path opacity="0.2" d="M126.04 92.957L132.388 94.4254L132.997 100.639C131.921 102.833 130.734 104.97 129.44 107.043L124.477 103.693C124.695 100.818 125.231 94.9111 126.04 92.957Z" fill="black"/>
<path d="M126.308 88.5186C126.308 88.5186 122.874 89.7246 129.747 131.965H158.98C158.488 120.068 158.477 112.726 164.161 88.3121C160.069 87.4659 155.921 86.9192 151.75 86.6763C146.831 86.4362 142.817 86.2799 138.473 86.6763C132.773 87.1955 126.308 88.5186 126.308 88.5186Z" fill="black"/>
<path opacity="0.5" d="M126.308 88.5186C126.308 88.5186 122.874 89.7246 129.747 131.965H158.98C158.488 120.068 158.477 112.726 164.161 88.3121C160.069 87.4659 155.921 86.9192 151.75 86.6763C146.831 86.4362 142.817 86.2799 138.473 86.6763C132.773 87.1955 126.308 88.5186 126.308 88.5186Z" fill="white"/>
<path opacity="0.2" d="M157.283 99.6455L161.057 102.861C160.253 107.132 159.711 110.678 159.382 113.854C158.662 110.683 156.864 102.074 157.283 99.6455Z" fill="black"/>
<path d="M150.432 71.7251C149.595 75.9961 148.757 83.8234 151.75 86.6764C151.75 86.6764 148.958 93.0745 141.561 93.0745C134.163 93.0745 138.473 86.6764 138.473 86.6764C143.236 85.5598 143.113 82.0034 142.287 78.6871L150.432 71.7251Z" fill="#F0997A"/>
<path d="M150.801 85.0796C150.097 86.5033 147.83 89.7582 141.499 90.9194C141.323 90.9517 141.142 90.9158 140.991 90.8189C139.808 89.9926 139.071 88.2452 139.59 86.2185C139.624 86.094 139.623 85.9624 139.587 85.8384C139.55 85.7145 139.48 85.6033 139.383 85.5173C139.287 85.4314 139.168 85.3741 139.041 85.352C138.914 85.3299 138.783 85.3438 138.663 85.3923C138.177 85.5958 137.71 85.8424 137.267 86.1292C137.17 86.1936 137.091 86.2821 137.039 86.386C136.575 87.257 134.699 91.5224 140.36 94.152C140.451 94.1906 140.547 94.2133 140.645 94.219C143.995 94.286 149.852 93.6272 153.553 86.9611C153.619 86.8407 153.649 86.7036 153.638 86.5667C153.627 86.4298 153.576 86.299 153.492 86.1906C152.994 85.646 152.416 85.181 151.778 84.8116C151.697 84.76 151.607 84.7259 151.512 84.7114C151.418 84.697 151.322 84.7026 151.229 84.7279C151.137 84.7531 151.051 84.7975 150.978 84.8581C150.904 84.9187 150.843 84.9942 150.801 85.0796Z" fill="#FAFAFA"/>
<path d="M152.353 102.655L144.816 102.437C144.737 102.438 144.659 102.421 144.587 102.39C144.515 102.358 144.451 102.311 144.398 102.253C144.345 102.194 144.305 102.125 144.281 102.05C144.257 101.975 144.249 101.896 144.258 101.817L144.33 100.885C144.352 100.728 144.431 100.585 144.551 100.482C144.671 100.379 144.825 100.324 144.984 100.327L152.521 100.545C152.6 100.544 152.678 100.56 152.751 100.592C152.823 100.625 152.888 100.672 152.941 100.731C152.994 100.79 153.034 100.86 153.057 100.936C153.081 101.011 153.088 101.091 153.079 101.17L153.006 102.097C152.985 102.253 152.906 102.397 152.786 102.5C152.665 102.603 152.511 102.658 152.353 102.655Z" fill="#FAFAFA"/>
<path opacity="0.2" d="M147.11 74.5669L142.286 78.6816C142.493 79.4532 142.631 80.2416 142.699 81.0376C144.514 80.7752 147.015 78.7765 147.21 76.8727C147.317 76.1044 147.283 75.323 147.11 74.5669Z" fill="black"/>
<path d="M156.06 63.6462C154.714 70.664 154.295 73.6621 150.253 76.8276C144.173 81.5955 135.849 78.402 135.079 71.1274C134.381 64.5785 136.698 54.2053 144.011 52.2848C145.614 51.8589 147.299 51.8491 148.907 52.2565C150.514 52.6638 151.991 53.4747 153.197 54.6124C154.404 55.7502 155.3 57.177 155.801 58.7579C156.302 60.3387 156.391 62.0213 156.06 63.6462Z" fill="#F0997A"/>
<path d="M152.068 58.4545C151.197 62.8483 150.99 68.6714 155.015 68.6714C159.041 68.6714 162.195 61.821 158.722 56.4558C155.25 51.0905 152.576 55.864 152.068 58.4545Z" fill="#263238"/>
<path d="M159.024 58.9956C159.024 63.7747 153.006 61.4131 150.343 59.353C147.68 57.2928 147.551 57.5162 142.616 57.5106C137.681 57.505 136.692 57.1644 135.235 54.8084C133.778 52.4524 133.912 50.9003 137.195 51.3972C140.478 51.8941 137.72 48.5443 140.165 46.6851C142.61 44.826 145.508 45.295 148.852 49.5381C152.196 53.7811 159.024 50.7161 159.024 58.9956Z" fill="#263238"/>
<path d="M157.258 69.8904C157.891 67.7304 157.27 65.6468 155.87 65.2364C154.471 64.8261 152.823 66.2445 152.19 68.4045C151.556 70.5644 152.178 72.6481 153.577 73.0584C154.977 73.4687 156.625 72.0503 157.258 69.8904Z" fill="white"/>
<path d="M146.083 75.2924C144.787 75.2921 143.505 75.0281 142.315 74.5163C142.289 74.506 142.266 74.4906 142.247 74.4711C142.227 74.4517 142.212 74.4285 142.201 74.4031C142.191 74.3776 142.186 74.3503 142.186 74.3227C142.186 74.2952 142.192 74.268 142.203 74.2428C142.226 74.1918 142.268 74.1518 142.32 74.131C142.372 74.1102 142.43 74.1103 142.482 74.1311C143.604 74.6125 144.811 74.864 146.032 74.8708C147.253 74.8775 148.462 74.6393 149.589 74.1702C150.686 73.7216 151.681 73.0584 152.517 72.2194C153.353 71.3805 154.013 70.3828 154.458 69.2851C156.133 64.4893 157.841 58.5043 155.865 54.7693C155.467 54.0423 154.917 53.41 154.252 52.9156C153.587 52.4213 152.823 52.0766 152.012 51.9052C151.959 51.8908 151.913 51.8558 151.884 51.8077C151.856 51.7596 151.848 51.7024 151.862 51.6484C151.876 51.5946 151.911 51.5486 151.959 51.5204C152.007 51.4922 152.064 51.484 152.118 51.4977C152.985 51.684 153.8 52.0547 154.51 52.5846C155.22 53.1145 155.808 53.791 156.233 54.5683C158.288 58.4262 156.574 64.5284 154.849 69.4135C154.381 70.5663 153.687 71.6137 152.807 72.494C151.928 73.3742 150.881 74.0694 149.729 74.5387C148.574 75.0239 147.336 75.2799 146.083 75.2924Z" fill="white"/>
<path opacity="0.6" d="M157.054 69.9107C156.557 71.5856 155.418 72.7636 154.508 72.5012C153.598 72.2388 153.263 70.6421 153.76 68.9449C154.257 67.2477 155.396 66.0864 156.306 66.3544C157.216 66.6224 157.551 68.2135 157.054 69.9107Z" fill="black"/>
<path d="M142.894 73.5929L140.707 73.1709C140.322 73.0968 139.951 73.3483 139.876 73.7328L139.852 73.8589C139.778 74.2434 140.029 74.6152 140.414 74.6894L142.601 75.1114C142.986 75.1856 143.358 74.934 143.432 74.5495L143.456 74.4235C143.53 74.039 143.279 73.6671 142.894 73.5929Z" fill="white"/>
<path d="M140.037 64.2329C140.037 64.2329 138.742 66.5833 137.514 67.6385C138.178 68.4481 139.518 68.2917 139.518 68.2917L140.037 64.2329Z" fill="#B16668"/>
<path d="M141.271 71.2953H141.321C142.587 71.3952 143.843 71.0123 144.838 70.2234C144.859 70.2025 144.87 70.1745 144.87 70.1452C144.87 70.116 144.859 70.088 144.838 70.0671C144.828 70.0571 144.817 70.0492 144.804 70.0438C144.791 70.0384 144.777 70.0356 144.763 70.0356C144.749 70.0356 144.735 70.0384 144.722 70.0438C144.709 70.0492 144.697 70.0571 144.687 70.0671C143.737 70.8138 142.543 71.1782 141.338 71.0888C141.323 71.0864 141.309 71.087 141.294 71.0906C141.28 71.0942 141.267 71.1006 141.256 71.1095C141.244 71.1184 141.234 71.1296 141.227 71.1424C141.22 71.1551 141.216 71.1692 141.215 71.1837C141.212 71.2057 141.216 71.2281 141.226 71.248C141.236 71.2679 141.251 71.2844 141.271 71.2953Z" fill="#263238"/>
<path d="M147.658 61.4696C147.689 61.4872 147.725 61.4964 147.761 61.4964C147.797 61.4964 147.832 61.4872 147.864 61.4696C147.912 61.4376 147.946 61.3884 147.958 61.3323C147.971 61.2761 147.961 61.2173 147.931 61.1681C147.664 60.721 147.294 60.3439 146.853 60.0682C146.411 59.7925 145.91 59.626 145.391 59.5825C145.333 59.5825 145.277 59.6053 145.235 59.6459C145.193 59.6866 145.169 59.742 145.167 59.8003C145.167 59.857 145.19 59.9116 145.229 59.9523C145.269 59.993 145.323 60.0165 145.38 60.018C145.827 60.0606 146.258 60.2083 146.637 60.4489C147.016 60.6895 147.333 61.0162 147.563 61.4026C147.588 61.4331 147.62 61.4562 147.658 61.4696Z" fill="#263238"/>
<path d="M144.458 64.3278C144.363 64.8861 143.978 65.316 143.598 65.2546C143.219 65.1932 143.001 64.6963 143.096 64.0933C143.191 63.4904 143.582 63.1052 143.956 63.1666C144.33 63.228 144.559 63.7528 144.458 64.3278Z" fill="#263238"/>
<path d="M137.948 63.222C137.853 63.7803 137.468 64.2102 137.089 64.1488C136.709 64.0874 136.491 63.5626 136.586 62.9875C136.681 62.4125 137.072 61.9938 137.446 62.0608C137.82 62.1277 138.049 62.6414 137.948 63.222Z" fill="#263238"/>
<path d="M137.608 62.1228L136.291 61.4863C136.291 61.4863 136.815 62.6867 137.608 62.1228Z" fill="#263238"/>
<path d="M144.118 63.2276L142.801 62.5967C142.801 62.5967 143.326 63.797 144.118 63.2276Z" fill="#263238"/>
<path d="M135.738 59.3311C135.772 59.3513 135.81 59.3619 135.849 59.3619C135.889 59.3619 135.927 59.3513 135.961 59.3311C136.306 59.0415 136.715 58.8395 137.154 58.7423C137.594 58.6451 138.05 58.6556 138.485 58.7728C138.539 58.7921 138.6 58.7888 138.652 58.7636C138.704 58.7385 138.745 58.6936 138.764 58.6388C138.783 58.584 138.78 58.5238 138.755 58.4715C138.729 58.4191 138.685 58.3789 138.63 58.3597C138.129 58.217 137.601 58.1973 137.09 58.3023C136.58 58.4072 136.103 58.6338 135.699 58.9626C135.675 58.9791 135.656 59.0003 135.641 59.0247C135.626 59.0492 135.617 59.0765 135.613 59.1048C135.609 59.1331 135.612 59.1619 135.62 59.1893C135.628 59.2168 135.641 59.2422 135.66 59.2641C135.678 59.2938 135.706 59.3172 135.738 59.3311Z" fill="#263238"/>
<path d="M128.636 139.084C128.636 139.084 128.558 135.086 129.753 131.965H158.98C158.98 131.965 161.609 136.208 162.291 139.084H128.636Z" fill="black"/>
<path d="M159.421 130.252L159.65 132.865C159.756 133.071 159.516 133.278 159.175 133.278H129.585C129.323 133.278 129.105 133.149 129.088 132.982L128.82 130.364C128.82 130.185 129.032 130.029 129.323 130.029H158.913C159.009 130.018 159.107 130.033 159.196 130.073C159.286 130.112 159.363 130.174 159.421 130.252Z" fill="black"/>
<path opacity="0.3" d="M159.421 130.252L159.65 132.865C159.756 133.071 159.516 133.278 159.175 133.278H129.585C129.323 133.278 129.105 133.149 129.088 132.982L128.82 130.364C128.82 130.185 129.032 130.029 129.323 130.029H158.913C159.009 130.018 159.107 130.033 159.196 130.073C159.286 130.112 159.363 130.174 159.421 130.252Z" fill="#FAFAFA"/>
<path d="M155.44 133.557H156.233C156.395 133.557 156.512 133.479 156.501 133.378L156.132 129.978C156.132 129.877 155.982 129.799 155.825 129.799H155.016C154.854 129.799 154.737 129.877 154.748 129.978L155.116 133.378C155.144 133.479 155.284 133.557 155.44 133.557Z" fill="black"/>
<path d="M131.83 133.557H132.623C132.779 133.557 132.902 133.479 132.891 133.378L132.516 129.978C132.516 129.877 132.371 129.799 132.209 129.799H131.417C131.26 129.799 131.137 129.877 131.149 129.978L131.523 133.378C131.534 133.479 131.673 133.557 131.83 133.557Z" fill="black"/>
<path d="M143.638 133.557H144.408C144.565 133.557 144.687 133.479 144.676 133.378L144.302 129.978C144.302 129.877 144.151 129.799 143.995 129.799H143.202C143.046 129.799 142.923 129.877 142.934 129.978L143.308 133.378C143.342 133.479 143.476 133.557 143.638 133.557Z" fill="black"/>
<path d="M166.662 96.5859C167.946 100.755 169.18 104.946 170.364 109.159L172.145 115.445L173.032 118.572L173.256 119.342L173.367 119.727L173.395 119.817L173.306 119.677C173.165 119.475 172.991 119.298 172.792 119.152C172.355 118.835 171.836 118.65 171.296 118.622C170.888 118.603 170.482 118.683 170.113 118.857C169.711 119.074 169.75 119.124 169.783 119.085C169.878 119.003 169.964 118.911 170.04 118.812C170.303 118.483 170.546 118.138 170.766 117.779C171.257 116.975 171.743 116.071 172.201 115.144C173.15 113.29 174.004 111.325 174.869 109.349C175.735 107.372 176.544 105.374 177.382 103.358C178.219 101.343 179.017 99.316 179.844 97.3173L183.411 98.3781C182.484 102.733 181.401 107.009 180.061 111.269C179.403 113.407 178.671 115.523 177.828 117.667C177.393 118.739 176.929 119.811 176.354 120.922C176.048 121.523 175.705 122.105 175.327 122.664C175.092 123.015 174.831 123.347 174.545 123.658C174.092 124.172 173.542 124.591 172.926 124.892C172.312 125.191 171.633 125.332 170.95 125.305C170.14 125.26 169.363 124.974 168.717 124.484C168.305 124.174 167.948 123.796 167.662 123.368C167.48 123.092 167.321 122.803 167.187 122.502C167.137 122.379 167.081 122.251 167.042 122.139L166.936 121.866L166.791 121.469L166.5 120.682C166.121 119.638 165.735 118.594 165.384 117.55C164.669 115.462 163.954 113.38 163.285 111.286C161.915 107.102 160.638 102.898 159.455 98.674L166.662 96.5859Z" fill="#FFBDA7"/>
<path d="M164.161 88.312C167.092 89.1997 171.575 100.695 171.575 100.695L160.214 108.818C160.214 108.818 155.105 98.9922 156.334 95.207C157.618 91.2654 160.822 87.2959 164.161 88.312Z" fill="black"/>
<path opacity="0.5" d="M164.161 88.312C167.092 89.1997 171.575 100.695 171.575 100.695L160.214 108.818C160.214 108.818 155.105 98.9922 156.334 95.207C157.618 91.2654 160.822 87.2959 164.161 88.312Z" fill="white"/>
<path d="M179.972 98.8476L178.414 91.9805L184.89 95.3973C184.89 95.3973 184.968 100.02 182.356 101.477L179.972 98.8476Z" fill="#F0997A"/>
<path d="M181.127 86.5312L185.259 89.4623L184.89 95.397L178.414 91.9802L181.127 86.5312Z" fill="#F0997A"/>
<path d="M65.1295 51.972H110.352C111.215 51.9635 112.071 52.1342 112.865 52.4734C113.659 52.8125 114.374 53.3128 114.965 53.9424C115.556 54.5721 116.01 55.3175 116.298 56.1315C116.586 56.9455 116.702 57.8104 116.638 58.6716L115.376 79.1388C115.238 80.9406 114.432 82.6258 113.116 83.8648C111.801 85.1039 110.07 85.8076 108.264 85.8384H103.027L105.165 92.8674L94.9371 85.8384H63.0582C62.1947 85.8469 61.339 85.6762 60.5449 85.337C59.7508 84.9979 59.0358 84.4976 58.4449 83.868C57.8541 83.2383 57.4003 82.4929 57.1123 81.6789C56.8243 80.8649 56.7083 80 56.7717 79.1388L58.0223 58.6716C58.161 56.8708 58.9661 55.1863 60.2803 53.9474C61.5946 52.7085 63.3236 52.0042 65.1295 51.972Z" fill="black"/>
<path d="M106.209 62.6916H67.9659C67.8035 62.6907 67.6431 62.6561 67.4948 62.59C67.3465 62.5239 67.2135 62.4277 67.1044 62.3075C66.9952 62.1873 66.9122 62.0457 66.8606 61.8918C66.809 61.7378 66.7899 61.5748 66.8046 61.4131C66.8296 61.0743 66.9803 60.757 67.2272 60.5236C67.4741 60.2902 67.7993 60.1574 68.1389 60.1514H106.388C106.55 60.1517 106.709 60.1853 106.857 60.25C107.005 60.3147 107.138 60.4092 107.248 60.5275C107.358 60.6458 107.443 60.7855 107.496 60.9379C107.55 61.0902 107.572 61.252 107.56 61.4131C107.541 61.7583 107.39 62.0828 107.139 62.3204C106.887 62.558 106.555 62.6908 106.209 62.6916Z" fill="white"/>
<path d="M83.5539 70.1671H67.5084C67.3459 70.1683 67.1849 70.1359 67.0356 70.0719C66.8863 70.0078 66.7518 69.9136 66.6406 69.7951C66.5295 69.6766 66.444 69.5364 66.3897 69.3833C66.3353 69.2302 66.3132 69.0675 66.3248 68.9054C66.3499 68.5656 66.5014 68.2476 66.7494 68.014C66.9975 67.7804 67.324 67.6483 67.6647 67.6436H83.7269C83.8899 67.6417 84.0515 67.6735 84.2015 67.7372C84.3515 67.8009 84.4866 67.895 84.5984 68.0136C84.7101 68.1322 84.7961 68.2727 84.8508 68.4262C84.9055 68.5797 84.9277 68.7429 84.9161 68.9054C84.8894 69.2485 84.7344 69.569 84.4819 69.8028C84.2294 70.0367 83.898 70.1668 83.5539 70.1671Z" fill="white"/>
<path d="M97.3046 77.6423H67.0503C66.8879 77.6434 66.7269 77.611 66.5776 77.547C66.4282 77.4829 66.2938 77.3887 66.1826 77.2702C66.0715 77.1517 65.986 77.0115 65.9317 76.8584C65.8773 76.7053 65.8552 76.5426 65.8668 76.3805C65.8906 76.0403 66.0417 75.7215 66.29 75.4877C66.5383 75.2538 66.8656 75.1221 67.2067 75.1187H97.4609C97.6236 75.1167 97.785 75.1486 97.9347 75.2123C98.0844 75.2761 98.2193 75.3703 98.3306 75.489C98.4419 75.6076 98.5273 75.7482 98.5814 75.9017C98.6354 76.0552 98.6569 76.2182 98.6445 76.3805C98.6194 76.7203 98.4679 77.0383 98.2199 77.2719C97.9718 77.5054 97.6453 77.6376 97.3046 77.6423Z" fill="white"/>
<path d="M95.3393 70.1672H89.0137C88.8512 70.1683 88.6903 70.1359 88.541 70.0719C88.3916 70.0078 88.2571 69.9136 88.146 69.7951C88.0348 69.6766 87.9494 69.5364 87.895 69.3833C87.8407 69.2302 87.8186 69.0675 87.8301 68.9054C87.8565 68.5661 88.0084 68.2488 88.2561 68.0155C88.5039 67.7821 88.8298 67.6496 89.17 67.6436H95.49C95.6527 67.6416 95.8141 67.6735 95.9638 67.7372C96.1135 67.801 96.2483 67.8952 96.3597 68.0139C96.471 68.1325 96.5564 68.2731 96.6105 68.4266C96.6645 68.5801 96.686 68.7431 96.6736 68.9054C96.6486 69.2442 96.4979 69.5615 96.251 69.7949C96.0041 70.0284 95.679 70.1611 95.3393 70.1672Z" fill="white"/>
<path d="M128.1 15.1799H103.445C102.039 15.201 100.692 15.7471 99.6684 16.711C98.6446 17.6748 98.0183 18.9867 97.9126 20.3888L96.9523 36.3227C96.9045 36.9926 96.9959 37.6652 97.2209 38.298C97.4459 38.9309 97.7995 39.5102 98.2595 39.9996C98.7195 40.489 99.2759 40.8778 99.8936 41.1414C100.511 41.4051 101.177 41.538 101.849 41.5316H105.885L103.551 47.003L112.183 41.5316H126.486C127.892 41.5105 129.239 40.9644 130.263 40.0005C131.287 39.0367 131.913 37.7248 132.019 36.3227L132.996 20.3888C133.044 19.7189 132.952 19.0463 132.727 18.4135C132.503 17.7807 132.149 17.2013 131.689 16.7119C131.229 16.2226 130.672 15.8338 130.055 15.5701C129.437 15.3064 128.771 15.1736 128.1 15.1799Z" fill="black"/>
<g opacity="0.5">
<path opacity="0.5" d="M128.1 15.1799H103.445C102.039 15.201 100.692 15.7471 99.6684 16.711C98.6446 17.6748 98.0183 18.9867 97.9126 20.3888L96.9523 36.3227C96.9045 36.9926 96.9959 37.6652 97.2209 38.298C97.4459 38.9309 97.7995 39.5102 98.2595 39.9996C98.7195 40.489 99.2759 40.8778 99.8936 41.1414C100.511 41.4051 101.177 41.538 101.849 41.5316H105.885L103.551 47.003L112.183 41.5316H126.486C127.892 41.5105 129.239 40.9644 130.263 40.0005C131.287 39.0367 131.913 37.7248 132.019 36.3227L132.996 20.3888C133.044 19.7189 132.952 19.0463 132.727 18.4135C132.503 17.7807 132.149 17.2013 131.689 16.7119C131.229 16.2226 130.672 15.8338 130.055 15.5701C129.437 15.3064 128.771 15.1736 128.1 15.1799Z" fill="#FAFAFA"/>
</g>
<path d="M116.214 30.963C116.129 31.3139 115.929 31.6262 115.645 31.8499C115.362 32.0735 115.011 32.1957 114.65 32.1968H113.193C113.193 31.7837 113.227 31.5324 113.232 31.4431C113.253 30.6384 113.46 29.8494 113.835 29.1373C114.363 28.3436 115.033 27.6546 115.812 27.1051C116.433 26.6551 117.019 26.1587 117.565 25.6201C117.854 25.2773 118.027 24.8507 118.056 24.403C118.078 24.1063 118.032 23.8085 117.92 23.5327C117.809 23.2568 117.636 23.0102 117.414 22.8118C116.872 22.3478 116.172 22.1117 115.46 22.153C114.711 22.1326 113.979 22.3778 113.394 22.8453C113.046 23.1322 112.761 23.4876 112.557 23.8893C112.406 24.1828 112.172 24.4252 111.884 24.5861C111.596 24.747 111.267 24.8192 110.938 24.7938C110.701 24.7645 110.476 24.6759 110.282 24.5364C110.089 24.3968 109.934 24.2107 109.831 23.9953C109.729 23.7799 109.682 23.5422 109.696 23.3041C109.71 23.066 109.784 22.8352 109.91 22.6332C110.247 22.0678 110.68 21.5653 111.189 21.1481C112.399 20.1755 113.92 19.6737 115.471 19.7356C117.297 19.7356 118.715 20.2101 119.737 21.1648C120.215 21.5761 120.591 22.0925 120.836 22.6738C121.081 23.255 121.188 23.8851 121.149 24.5146C121.098 25.2302 120.851 25.9178 120.434 26.5022C119.65 27.4678 118.744 28.3273 117.738 29.0592C117.217 29.423 116.766 29.879 116.409 30.4047C116.318 30.5808 116.252 30.7687 116.214 30.963ZM113.026 34.9716V34.7929C113.055 34.3895 113.235 34.0117 113.53 33.7346C113.824 33.4575 114.212 33.3012 114.617 33.2967H114.818C115.011 33.2938 115.203 33.3313 115.382 33.4066C115.56 33.4819 115.72 33.5934 115.853 33.7341C115.986 33.8748 116.088 34.0416 116.153 34.2239C116.218 34.4061 116.244 34.5999 116.23 34.7929V34.9716C116.201 35.3756 116.021 35.7539 115.727 36.0319C115.432 36.3099 115.044 36.4675 114.639 36.4734H114.461C114.265 36.4795 114.07 36.4442 113.889 36.37C113.707 36.2957 113.544 36.1841 113.408 36.0425C113.273 35.9008 113.169 35.7323 113.103 35.5477C113.037 35.3632 113.011 35.1669 113.026 34.9716Z" fill="white"/>
</svg>
