<svg width="182" height="140" viewBox="0 0 182 140" fill="none" xmlns="http://www.w3.org/2000/svg">
<g clip-path="url(#clip0_203_4700)">
<path d="M-61 0H112.544V92.4142C107.223 94.4724 102.706 98.1966 99.6617 103.034H19.7066C17.3149 99.2205 13.9984 96.0774 10.0672 93.899C6.13588 91.7205 1.71824 90.5779 -2.77275 90.5779C-7.26374 90.5779 -11.6814 91.7205 -15.6127 93.899C-19.5439 96.0774 -22.8604 99.2205 -25.2521 103.034H-61V0Z" fill="black" fill-opacity="0.05"/>
<path d="M23.7 117.23H95.6468C95.6478 113.727 96.3335 110.258 97.6649 107.02H21.6818C23.0231 110.255 23.7091 113.726 23.7 117.23Z" fill="black" fill-opacity="0.05"/>
<path d="M170.986 31.4293C163.643 24.0621 154.046 17.7288 144.878 16.3501C135.878 15.3913 126.834 14.9024 117.783 14.8853V90.9708C119.243 90.7107 120.723 90.581 122.205 90.5831C129.246 90.5888 135.995 93.3988 140.971 98.3954C145.947 103.392 148.743 110.167 148.743 117.23H170.986C173.901 117.225 176.696 116.061 178.76 113.995C180.824 111.928 181.989 109.126 182 106.201V58.0981C182 53.1448 181.028 48.24 179.138 43.664C177.248 39.088 174.478 34.9306 170.986 31.4293ZM174.292 67.2318C174.294 67.8168 174.165 68.3948 173.917 68.9239C173.668 69.453 173.305 69.9199 172.854 70.2907C172.408 70.6596 171.885 70.9228 171.323 71.0608C170.762 71.1988 170.177 71.208 169.612 71.0878L130.278 63.225C129.374 63.0673 128.555 62.5936 127.965 61.8879C127.376 61.1821 127.054 60.2898 127.058 59.369V25.6561C133.699 25.6693 140.335 26.0288 146.939 26.7332C153.681 27.7457 160.723 32.3987 166.112 37.8057C168.681 40.3778 170.718 43.4335 172.107 46.7975C173.496 50.1614 174.21 53.7675 174.206 57.4087L174.292 67.2318Z" fill="black" fill-opacity="0.05"/>
<path d="M19.8354 117.23C19.8354 123.269 17.4444 129.061 13.1885 133.331C8.93253 137.601 3.16021 140 -2.85862 140C-8.87745 140 -14.6498 137.601 -18.9057 133.331C-23.1617 129.061 -25.5527 123.269 -25.5527 117.23C-25.5679 113.681 -24.736 110.18 -23.1265 107.02C-22.7095 106.152 -22.2287 105.317 -21.688 104.521C-21.323 104.004 -20.9795 103.508 -20.5716 103.034C-18.4476 100.367 -15.7526 98.2141 -12.6864 96.7343C-9.62008 95.2545 -6.26117 94.4861 -2.85862 94.4861C0.543922 94.4861 3.90284 95.2545 6.96911 96.7343C10.0354 98.2141 12.7304 100.367 14.8543 103.034C15.2622 103.508 15.6058 104.004 15.9708 104.521C18.4642 108.29 19.8073 112.707 19.8354 117.23Z" fill="black" fill-opacity="0.05"/>
<path d="M144.878 117.23C144.881 121.31 143.792 125.316 141.725 128.828C139.657 132.341 136.687 135.232 133.124 137.199C129.562 139.165 125.538 140.136 121.474 140.008C117.41 139.88 113.454 138.66 110.022 136.473C106.589 134.287 103.804 131.215 101.96 127.579C100.115 123.944 99.2778 119.877 99.5356 115.806C99.7934 111.735 101.137 107.807 103.425 104.435C105.713 101.063 108.863 98.3693 112.544 96.6364C114.211 95.8441 115.971 95.2651 117.783 94.913C119.24 94.6269 120.721 94.4826 122.205 94.4822C128.219 94.4822 133.985 96.8789 138.237 101.145C142.489 105.411 144.878 111.197 144.878 117.23Z" fill="black" fill-opacity="0.05"/>
</g>
<defs>
<clipPath id="clip0_203_4700">
<rect width="243" height="140" fill="white" transform="translate(-61)"/>
</clipPath>
</defs>
</svg>
