<svg width="25" height="25" viewBox="0 0 25 25" fill="none" xmlns="http://www.w3.org/2000/svg">
<path fill-rule="evenodd" clip-rule="evenodd" d="M12.5788 1.11758L23.4538 11.9926C23.8888 12.4276 24.1667 13.0438 24.1667 13.7084C24.1667 14.373 23.9008 14.9772 23.4538 15.4122L14.9954 23.8705C14.5604 24.3176 13.9563 24.5834 13.2917 24.5834C12.6271 24.5834 12.0229 24.3176 11.5879 23.8826L0.712917 13.0076C0.265833 12.5605 0 11.9563 0 11.2917V2.83341C0 1.50425 1.0875 0.416748 2.41667 0.416748H10.875C11.5396 0.416748 12.1438 0.682581 12.5788 1.11758ZM2.41667 11.2917L13.2917 22.1788L21.75 13.6963L10.875 2.82133V2.83341H2.41667V11.2917ZM5.4375 4.04175C4.43648 4.04175 3.625 4.85323 3.625 5.85425C3.625 6.85526 4.43648 7.66675 5.4375 7.66675C6.43852 7.66675 7.25 6.85526 7.25 5.85425C7.25 4.85323 6.43852 4.04175 5.4375 4.04175ZM9.0625 14.9167C8.61542 14.4576 8.3375 13.8534 8.3375 13.1647C8.3375 11.7992 9.44917 10.6876 10.8146 10.6876C11.4912 10.6876 12.1196 10.9655 12.5667 11.4247L13.2917 12.1376L14.0167 11.4126C14.4637 10.9655 15.08 10.6876 15.7688 10.6876C17.1342 10.6876 18.2458 11.7992 18.2458 13.1647C18.2458 13.8413 17.9679 14.4697 17.5208 14.9167L13.2917 19.1459L9.0625 14.9167Z" fill="#ABABAB"/>
</svg>
