<?xml version="1.0" encoding="UTF-8"?>
<svg xmlns="http://www.w3.org/2000/svg" xmlns:xlink="http://www.w3.org/1999/xlink" width="12px" height="16px" viewBox="0 0 12 16" version="1.1">
<g id="surface1">
<path style=" stroke:none;fill-rule:evenodd;fill:rgb(0%,0%,0%);fill-opacity:1;" d="M 8.136719 6.847656 C 8.136719 8.320312 7.242188 9.515625 6.136719 9.515625 C 5.03125 9.515625 4.136719 8.320312 4.136719 6.847656 C 4.136719 5.375 5.03125 4.179688 6.136719 4.179688 C 7.242188 4.179688 8.136719 5.375 8.136719 6.847656 Z M 7.136719 6.847656 C 7.136719 7.585938 6.6875 8.179688 6.136719 8.179688 C 5.582031 8.179688 5.136719 7.585938 5.136719 6.847656 C 5.136719 6.113281 5.582031 5.515625 6.136719 5.515625 C 6.6875 5.515625 7.136719 6.113281 7.136719 6.847656 Z M 7.136719 6.847656 "/>
<path style=" stroke:none;fill-rule:evenodd;fill:rgb(0%,0%,0%);fill-opacity:1;" d="M 2.898438 11.011719 C 1.097656 8.726562 1.027344 4.929688 2.742188 2.53125 C 4.453125 0.128906 7.304688 0.0351562 9.101562 2.320312 C 10.902344 4.605469 10.972656 8.402344 9.257812 10.804688 L 6.15625 15.148438 Z M 8.535156 9.882812 L 6.121094 13.265625 L 3.585938 10.046875 C 2.1875 8.269531 2.132812 5.316406 3.464844 3.449219 C 4.796875 1.582031 7.011719 1.507812 8.414062 3.285156 C 9.8125 5.0625 9.867188 8.019531 8.535156 9.882812 Z M 8.535156 9.882812 "/>
</g>
</svg>
