<svg width="16" height="16" viewBox="0 0 16 16" fill="none" xmlns="http://www.w3.org/2000/svg">
<path fill-rule="evenodd" clip-rule="evenodd" d="M1.15515 1.35552L2.04144 0.469238L15.5306 13.9584L14.6443 14.8447L12.8592 13.0595C12.6329 13.3801 12.262 13.5875 11.8409 13.5875C11.1494 13.5875 10.59 13.0218 10.59 12.3304C10.59 11.9092 10.7974 11.5384 11.1117 11.3121L10.2443 10.4447H5.55515C4.86372 10.4447 4.29801 9.87895 4.29801 9.18752C4.29801 8.96752 4.35458 8.7601 4.45515 8.5841L5.30372 7.0441L3.91458 4.11495L1.15515 1.35552ZM6.24658 7.93038L5.55515 9.18752H8.98715L7.73001 7.93038H6.24658ZM13.7266 2.27324H5.63058L6.88772 3.53038H12.6643L10.9294 6.67324H10.0243L11.2437 7.89267C11.5832 7.80467 11.866 7.58467 12.0294 7.28295L14.2797 3.20352C14.5123 2.78867 14.2043 2.27324 13.7266 2.27324ZM4.30429 12.3304C4.30429 11.639 4.86372 11.0732 5.55515 11.0732C6.24658 11.0732 6.81229 11.639 6.81229 12.3304C6.81229 13.0218 6.24658 13.5875 5.55515 13.5875C4.86372 13.5875 4.30429 13.0218 4.30429 12.3304Z" fill="white"/>
</svg>
