<svg width="15" height="15" viewBox="0 0 15 15" fill="none" xmlns="http://www.w3.org/2000/svg">
<path fill-rule="evenodd" clip-rule="evenodd" d="M9.84732 9.28499H10.4727L14.4232 13.2433L13.2436 14.4229L9.28524 10.4725V9.84708L9.07149 9.62541C8.16899 10.4012 6.99732 10.8683 5.72274 10.8683C2.88065 10.8683 0.576904 8.56458 0.576904 5.72249C0.576904 2.88041 2.88065 0.57666 5.72274 0.57666C8.56482 0.57666 10.8686 2.88041 10.8686 5.72249C10.8686 6.99708 10.4015 8.16874 9.62566 9.07124L9.84732 9.28499ZM2.16024 5.72249C2.16024 7.69374 3.75149 9.28499 5.72274 9.28499C7.69399 9.28499 9.28524 7.69374 9.28524 5.72249C9.28524 3.75124 7.69399 2.15999 5.72274 2.15999C3.75149 2.15999 2.16024 3.75124 2.16024 5.72249Z" fill="#ABABAB"/>
</svg>
