<svg width="162" height="159" viewBox="0 0 162 159" fill="none" xmlns="http://www.w3.org/2000/svg">
<g clip-path="url(#clip0_203_4719)">
<path d="M149.065 78.7301C149.065 78.7301 148.979 78.8156 149.065 78.8327C151.788 79.855 154.052 81.8228 155.444 84.3765C156.835 86.9302 157.262 89.8993 156.645 92.7414C155.994 95.4768 154.427 97.9078 152.206 99.6315C149.984 101.355 147.24 102.268 144.428 102.219H139.654C146.259 102.219 149.92 107.54 149.92 114.195C149.827 117.482 148.452 120.602 146.09 122.891C143.728 125.179 140.565 126.454 137.276 126.444H132.656C134.27 126.443 135.868 126.766 137.355 127.393C138.842 128.02 140.189 128.939 141.315 130.095C142.441 131.252 143.324 132.622 143.911 134.125C144.499 135.628 144.779 137.234 144.736 138.847C144.559 142.063 143.144 145.085 140.786 147.28C138.429 149.475 135.312 150.671 132.092 150.617H56.6703V62.2552C56.6714 61.4638 56.6027 60.6738 56.465 59.8944C69.4687 54.0435 88.6662 39.8611 95.168 10.6581C96.879 3.23328 103.723 -2.0017 111.354 0.735551C113.958 1.74445 116.143 3.60697 117.551 6.0185C118.959 8.43004 119.507 11.2479 119.105 14.0112C117.48 26.8078 116.333 45.3185 110.55 53.8382C110.499 53.9073 110.469 53.9892 110.462 54.0747C110.455 54.1602 110.472 54.2459 110.511 54.3223C110.55 54.3987 110.609 54.4627 110.683 54.5071C110.756 54.5515 110.841 54.5746 110.926 54.5738H149.92C151.533 54.5733 153.129 54.8956 154.615 55.5218C156.101 56.1479 157.447 57.0652 158.573 58.2196C159.698 59.374 160.582 60.7421 161.17 62.2432C161.759 63.7443 162.041 65.348 162 66.9599C161.823 70.1758 160.408 73.1982 158.05 75.3929C155.693 77.5875 152.576 78.7836 149.356 78.7301H149.065Z" fill="black" fill-opacity="0.05"/>
<path d="M53.2483 60.7155C53.2483 51.3063 50.254 51.8024 42.8282 51.8024H-9.57991C-12.3407 51.8114 -14.9859 52.912 -16.9381 54.8639C-18.8902 56.8158 -19.991 59.4606 -20 62.221V151.49C-20 157.221 -15.2948 158.966 -9.56289 158.966H47.3795C48.9544 158.961 50.4636 158.335 51.5788 157.223C52.694 156.111 53.3248 154.604 53.3338 153.029V60.7155H53.2483ZM32.7162 145.16C31.1353 146.296 29.218 146.868 27.2727 146.783C25.3274 146.698 23.4672 145.961 21.9916 144.691C20.516 143.421 19.5107 141.691 19.1375 139.78C18.7644 137.869 19.0451 135.888 19.9344 134.156C20.8237 132.424 22.2699 131.042 24.0403 130.231C25.8107 129.421 27.8024 129.23 29.6948 129.688C31.5871 130.147 33.2702 131.228 34.4731 132.759C35.676 134.29 36.3288 136.181 36.3264 138.128C36.3346 139.504 36.0107 140.862 35.3822 142.086C34.7537 143.31 33.8392 144.364 32.7162 145.16Z" fill="black" fill-opacity="0.05"/>
</g>
<defs>
<clipPath id="clip0_203_4719">
<rect width="182" height="159" fill="white" transform="translate(-20)"/>
</clipPath>
</defs>
</svg>
