<svg width="162" height="135" viewBox="0 0 162 135" fill="none" xmlns="http://www.w3.org/2000/svg">
<g clip-path="url(#clip0_203_4714)">
<path d="M161.975 17.8819V21.5765H-51V17.8819C-51 13.1394 -49.1185 8.59108 -45.7693 5.2376C-42.4202 1.88412 -37.8778 0.000152684 -33.1414 0.000152684H144.043C146.394 -0.00957665 148.725 0.445765 150.9 1.34005C153.075 2.23434 155.052 3.54996 156.719 5.2114C158.385 6.87285 159.707 8.84741 160.609 11.0218C161.511 13.1961 161.975 15.5274 161.975 17.8819Z" fill="black" fill-opacity="0.05"/>
<path d="M-51 40.8867V117.241C-51.0032 119.591 -50.5435 121.917 -49.6472 124.088C-48.7508 126.259 -47.4355 128.232 -45.7765 129.893C-44.1176 131.554 -42.1476 132.871 -39.9794 133.769C-37.8112 134.666 -35.4875 135.126 -33.1413 135.123H144.043C146.389 135.126 148.713 134.666 150.881 133.769C153.049 132.871 155.019 131.554 156.678 129.893C158.337 128.232 159.652 126.259 160.549 124.088C161.445 121.917 161.905 119.591 161.902 117.241V40.8867H-51ZM100.331 119.261C95.7643 119.261 91.3846 117.445 88.1554 114.211C84.9262 110.978 83.112 106.592 83.112 102.02C83.112 97.447 84.9262 93.0616 88.1554 89.8282C91.3846 86.5948 95.7643 84.7783 100.331 84.7783C103.27 84.7697 106.16 85.525 108.719 86.9705C106.641 88.8786 104.982 91.1985 103.847 93.7829C102.712 96.3672 102.126 99.1596 102.126 101.983C102.126 104.806 102.712 107.598 103.847 110.183C104.982 112.767 106.641 115.087 108.719 116.995C106.167 118.466 103.276 119.247 100.331 119.261ZM134.769 114.335C131.721 117.374 127.647 119.16 123.35 119.342C119.052 119.525 114.842 118.09 111.548 115.32C111.162 115.011 110.793 114.682 110.441 114.335C107.219 111.103 105.41 106.722 105.41 102.155C105.41 97.5882 107.219 93.2078 110.441 89.9754C110.793 89.6362 111.163 89.3156 111.548 89.0148C114.056 86.9228 117.107 85.5879 120.344 85.1656C123.581 84.7432 126.871 85.251 129.831 86.6295C132.791 88.0081 135.298 90.2007 137.061 92.9518C138.824 95.7028 139.769 98.8989 139.787 102.167C139.736 106.708 137.897 111.045 134.671 114.236L134.769 114.335Z" fill="black" fill-opacity="0.05"/>
</g>
<defs>
<clipPath id="clip0_203_4714">
<rect width="213" height="135" fill="white" transform="translate(-51)"/>
</clipPath>
</defs>
</svg>
