<?xml version="1.0" encoding="UTF-8"?>
<svg xmlns="http://www.w3.org/2000/svg" xmlns:xlink="http://www.w3.org/1999/xlink" width="308px" height="308px" viewBox="0 0 308 308" version="1.1">
<g id="surface1">
<path style=" stroke:none;fill-rule:nonzero;fill:rgb(0%,0%,0%);fill-opacity:1;" d="M 204.9375 90.886719 C 194.085938 90.886719 185.261719 99.71875 185.261719 110.570312 C 185.261719 121.421875 194.089844 130.246094 204.9375 130.246094 C 215.789062 130.246094 224.621094 121.417969 224.621094 110.570312 C 224.621094 99.71875 215.789062 90.886719 204.9375 90.886719 Z M 204.9375 125.679688 C 196.609375 125.679688 189.828125 118.898438 189.828125 110.570312 C 189.828125 102.238281 196.609375 95.460938 204.9375 95.460938 C 213.269531 95.460938 220.050781 102.238281 220.050781 110.570312 C 220.046875 118.898438 213.269531 125.679688 204.9375 125.679688 Z M 204.9375 125.679688 "/>
<path style=" stroke:none;fill-rule:nonzero;fill:rgb(0%,0%,0%);fill-opacity:1;" d="M 227.003906 64.429688 L 80.179688 64.429688 C 71.777344 64.429688 64.9375 71.265625 64.9375 79.671875 L 64.9375 226.496094 C 64.9375 234.898438 71.773438 241.734375 80.179688 241.734375 L 227.003906 241.734375 C 235.40625 241.734375 242.242188 234.898438 242.242188 226.496094 L 242.242188 79.671875 C 242.242188 71.269531 235.40625 64.429688 227.003906 64.429688 Z M 237.675781 226.496094 C 237.675781 232.378906 232.886719 237.164062 227.003906 237.164062 L 80.179688 237.164062 C 74.296875 237.164062 69.511719 232.378906 69.511719 226.496094 L 69.511719 194.136719 L 125.605469 140.210938 L 155.070312 168.335938 L 175.726562 146.785156 L 237.671875 194.296875 Z M 237.675781 188.539062 L 175.257812 140.671875 L 154.929688 161.886719 L 125.59375 133.886719 L 69.511719 187.808594 L 69.511719 79.671875 C 69.511719 73.789062 74.300781 69 80.179688 69 L 227.003906 69 C 232.890625 69 237.675781 73.789062 237.675781 79.671875 Z M 237.675781 188.539062 "/>
</g>
</svg>
