<?xml version="1.0" encoding="UTF-8"?>
<svg width="52px" height="52px" viewBox="0 0 52 52" version="1.1" xmlns="http://www.w3.org/2000/svg" xmlns:xlink="http://www.w3.org/1999/xlink">
    <title>commission</title>
    <g id="Page-1" stroke="none" stroke-width="1" fill="none" fill-rule="evenodd">
        <g id="Commission-List---Empty-State" transform="translate(-684.000000, -469.000000)">
            <g id="commission" transform="translate(685.000000, 470.000000)">
                <g id="Group" stroke="#333333" stroke-width="1.44">
                    <g id="Path">
                        <path d="M15.1632692,5.18126727 C15.1857374,7.31430452 13.9107913,9.24774409 11.9401749,10.0690492 C9.96955842,10.8903542 7.69722867,10.435333 6.19567043,8.91874461 C4.6941122,7.40215619 4.2635105,5.12719032 5.10709893,3.16757601 C5.95068737,1.20796169 7.89981941,-0.0445434722 10.0345518,0.00121273598 C12.863432,0.0618474263 15.1334952,2.35463329 15.1632692,5.18126727 L15.1632692,5.18126727 Z"></path>
                        <g transform="translate(4.060441, 24.381252)">
                            <polyline points="0 7.10542736e-15 0 25.618748 5.91775093 25.618748 5.91775093 11.9366474"></polyline>
                            <polyline points="11.8355019 7.10542736e-15 11.8355019 25.618748 5.91775093 25.618748 5.91775093 11.9366474"></polyline>
                        </g>
                        <g transform="translate(0.000000, 10.417453)">
                            <path d="M0.00255493635,21.4523564 L0.00255493635,10.1913683 C-0.0583968921,7.49962861 0.97341308,4.89777604 2.86310246,2.97809924 C4.75279184,1.05842244 7.33955988,-0.0157260908 10.0345518,0 L10.0345518,0"></path>
                            <path d="M19.9538295,21.4523564 L19.9538295,10.1913683 C20.0143313,7.51916193 18.9978474,4.93467583 17.1326758,3.01837438 C15.2675042,1.10207292 12.7099943,0.0145916138 10.0345518,0.000174041951 L10.0345518,0.000174041951"></path>
                        </g>
                    </g>
                    <path d="M18.4884817,10.0234922 C24.966892,4.56974757 34.2611489,4.01320056 41.3452494,8.6548119 C48.42935,13.2964232 51.6218301,22.0344719 49.1963103,30.1437325 C46.7707905,38.2529931 39.302986,43.8086722 30.8312193,43.8064565 C26.7850494,43.8392231 22.8347584,42.5763544 19.5593128,40.2029403" id="Path"></path>
                </g>
                <g id="$" transform="translate(28.500000, 16.500000)" fill="#333333" fill-rule="nonzero">
                    <path d="M9,10.3650628 C9,11.2751046 8.66596639,12.0251046 7.99789916,12.6150628 C7.32983193,13.2050209 6.36554622,13.5690377 5.10504202,13.707113 L5.10504202,15.75 L3.84768908,15.75 L3.84768908,13.7635983 C2.28466387,13.7384937 1.00210084,13.5 0,13.0481172 L0,11.0617155 C0.542016807,11.3253138 1.17542017,11.5465481 1.90021008,11.7254184 C2.625,11.9042887 3.27415966,11.9968619 3.84768908,12.0031381 L3.84768908,8.48221757 L3.05357143,8.19037657 C2.01995798,7.79497908 1.26523109,7.32269874 0.789390756,6.77353556 C0.31355042,6.22437238 0.0756302521,5.54497908 0.0756302521,4.73535565 C0.0756302521,3.86924686 0.414390756,3.15690377 1.09191176,2.59832636 C1.76943277,2.03974895 2.68802521,1.70083682 3.84768908,1.58158996 L3.84768908,0 L5.10504202,0 L5.10504202,1.55334728 C6.38445378,1.59728033 7.59768908,1.85460251 8.7447479,2.32531381 L8.05462185,4.04811715 C7.06512605,3.65899582 6.08193277,3.42677824 5.10504202,3.35146444 L5.10504202,6.77824268 L5.82352941,7.05125523 C7.0210084,7.50941423 7.84978992,7.99267782 8.30987395,8.50104603 C8.76995798,9.00941423 9,9.63075314 9,10.3650628 Z M6.76890756,10.5062762 C6.76890756,10.1422594 6.64128151,9.84257322 6.38602941,9.60721757 C6.13077731,9.37186192 5.70378151,9.14435146 5.10504202,8.92468619 L5.10504202,11.9278243 C6.21428571,11.7583682 6.76890756,11.2845188 6.76890756,10.5062762 Z M2.29726891,4.7165272 C2.29726891,5.07426778 2.40913866,5.37238494 2.63287815,5.61087866 C2.85661765,5.84937238 3.26155462,6.08472803 3.84768908,6.31694561 L3.84768908,3.38912134 C3.34348739,3.46443515 2.95903361,3.61820084 2.69432773,3.85041841 C2.42962185,4.08263598 2.29726891,4.37133891 2.29726891,4.7165272 Z" id="Shape"></path>
                </g>
            </g>
        </g>
    </g>
</svg>