<?xml version="1.0" encoding="UTF-8"?>
<svg width="51px" height="51px" viewBox="0 0 51 51" version="1.1" xmlns="http://www.w3.org/2000/svg" xmlns:xlink="http://www.w3.org/1999/xlink">
    <title>credit-affiliate</title>
    <g id="Affiliate" stroke="none" stroke-width="1" fill="none" fill-rule="evenodd">
        <g id="Withdrawal" transform="translate(-795.000000, -341.000000)" fill="#3A3A3C" fill-rule="nonzero">
            <g id="Group-4" transform="translate(735.000000, 235.000000)">
                <g id="credit-affiliate" transform="translate(60.000000, 106.000000)">
                    <path d="M15,38 C7.72767857,38 0,35.7222917 0,31.5 C0,27.2777083 7.72767857,25 15,25 C22.2723214,25 30,27.2777083 30,31.5 C30,35.7222917 22.2723214,38 15,38 Z M15,27.1666667 C7.03392857,27.1666667 2.14285714,29.6908333 2.14285714,31.5 C2.14285714,33.3091667 7.03392857,35.8333333 15,35.8333333 C22.9660714,35.8333333 27.8571429,33.3091667 27.8571429,31.5 C27.8571429,29.6908333 22.9660714,27.1666667 15,27.1666667 Z" id="Shape"></path>
                    <path d="M15,45 C7.72767857,45 0,42.5971429 0,38.1428571 C0,37.5116746 0.479694911,37 1.07142857,37 C1.66316223,37 2.14285714,37.5116746 2.14285714,38.1428571 C2.14285714,40.0514286 7.03392857,42.7142857 15,42.7142857 C22.9660714,42.7142857 27.8571429,40.0514286 27.8571429,38.1428571 C27.8571429,37.5116746 28.3368378,37 28.9285714,37 C29.5203051,37 30,37.5116746 30,38.1428571 C30,42.5971429 22.2723214,45 15,45 Z" id="Path"></path>
                    <path d="M15,51 C7.72767857,51 0,48.7868421 0,44.6842105 L0,32.0526316 C0,31.4712792 0.479694911,31 1.07142857,31 C1.66316223,31 2.14285714,31.4712792 2.14285714,32.0526316 L2.14285714,44.6842105 C2.14285714,46.4421053 7.03392857,48.8947368 15,48.8947368 C22.9660714,48.8947368 27.8571429,46.4421053 27.8571429,44.6842105 L27.8571429,32.0526316 C27.8571429,31.4712792 28.3368378,31 28.9285714,31 C29.5203051,31 30,31.4712792 30,32.0526316 L30,44.6842105 C30,48.7868421 22.2723214,51 15,51 Z" id="Path"></path>
                    <path d="M36,13 C28.7276786,13 21,10.7222917 21,6.5 C21,2.27770833 28.7276786,0 36,0 C43.2723214,0 51,2.27770833 51,6.5 C51,10.7222917 43.2723214,13 36,13 Z M36,2.16666667 C28.0339286,2.16666667 23.1428571,4.69083333 23.1428571,6.5 C23.1428571,8.30916667 28.0339286,10.8333333 36,10.8333333 C43.9660714,10.8333333 48.8571429,8.30916667 48.8571429,6.5 C48.8571429,4.69083333 43.9660714,2.16666667 36,2.16666667 Z" id="Shape"></path>
                    <path d="M36,19 C28.7276786,19 21,16.5971429 21,12.1428571 C21,11.5116746 21.4796949,11 22.0714286,11 C22.6631622,11 23.1428571,11.5116746 23.1428571,12.1428571 C23.1428571,14.0514286 28.0339286,16.7142857 36,16.7142857 C43.9660714,16.7142857 48.8571429,14.0514286 48.8571429,12.1428571 C48.8571429,11.5116746 49.3368378,11 49.9285714,11 C50.5203051,11 51,11.5116746 51,12.1428571 C51,16.5971429 43.2723214,19 36,19 Z" id="Path"></path>
                    <path d="M36,26 C28.7276786,26 21,23.5971429 21,19.1428571 C21,18.5116746 21.4796949,18 22.0714286,18 C22.6631622,18 23.1428571,18.5116746 23.1428571,19.1428571 C23.1428571,21.0514286 28.0339286,23.7142857 36,23.7142857 C43.9660714,23.7142857 48.8571429,21.0514286 48.8571429,19.1428571 C48.8571429,18.5116746 49.3368378,18 49.9285714,18 C50.5203051,18 51,18.5116746 51,19.1428571 C51,23.5971429 43.2723214,26 36,26 Z" id="Path"></path>
                    <path d="M36.1698068,32 C35.0893213,32 34.0141323,31.9486265 32.9707222,31.8515876 C32.3856873,31.7964182 31.9529209,31.2405677 32.0041115,30.6100607 C32.055302,29.9795536 32.5710647,29.5131503 33.1560996,29.5683197 C34.1386,29.6596504 35.1528792,29.7081698 36.1698068,29.7081698 C44.0456987,29.7081698 48.881401,27.0481627 48.881401,25.141634 C48.881401,24.5111269 49.3556655,24 49.9407005,24 C50.5257355,24 51,24.5111269 51,25.141634 C51,29.5997146 43.3598022,32 36.1698068,32 Z" id="Path"></path>
                    <path d="M36.2255435,38 C35.1121827,38 34.0146516,37.9520968 32.9646099,37.853629 C32.587581,37.8194007 32.2572947,37.5848768 32.0981668,37.2384001 C31.9390388,36.8919235 31.9752445,36.4861323 32.1931454,36.173884 C32.4110464,35.8616358 32.7775383,35.6903684 33.1545672,35.7245968 C34.1439281,35.8150806 35.1755018,35.8603226 36.2255435,35.8603226 C44.0718352,35.8603226 48.8893634,33.38 48.8893634,31.6022581 L48.8893634,6.06451613 C48.8893634,5.47660011 49.3618455,5 49.9446817,5 C50.5275179,5 51,5.47660011 51,6.06451613 L51,31.6129032 C51,35.7618548 43.3885166,38 36.2255435,38 Z" id="Path"></path>
                    <path d="M22,23 C21.4477153,23 21,22.5259486 21,21.9411765 L21,6.05882353 C21,5.47405144 21.4477153,5 22,5 C22.5522847,5 23,5.47405144 23,6.05882353 L23,21.9411765 C23,22.5259486 22.5522847,23 22,23 Z" id="Path"></path>
                </g>
            </g>
        </g>
    </g>
</svg>