<svg width="288" height="154" viewBox="0 0 288 154" fill="none" xmlns="http://www.w3.org/2000/svg">
<path d="M71.8641 96.2759H8.7281C3.90634 96.2759 0 100.183 0 105.005C0 109.828 3.90634 113.734 8.7281 113.734H71.8641C76.6858 113.734 80.5921 109.828 80.5921 105.005C80.5921 100.192 76.6858 96.2759 71.8641 96.2759Z" fill="url(#paint0_linear_377_11772)"/>
<path d="M187.115 51.3241H100.894L107.338 39.7485H180.661L187.115 51.3241Z" fill="url(#paint1_linear_377_11772)"/>
<path d="M156 94.1367H132V108.695H156V94.1367Z" fill="#1E1C1C"/>
<path d="M215.293 84.0207H72.707L83.3747 48.8135H204.625L215.293 84.0207Z" fill="#828282"/>
<path d="M144 0C139.876 0 136.532 3.34487 136.532 7.4693V102.875H151.468V7.4693C151.468 3.34487 148.124 0 144 0Z" fill="url(#paint2_linear_377_11772)"/>
<path d="M224.809 23.2056H63.1902C58.6222 23.2056 54.9243 26.904 54.9243 31.4726C54.9243 36.0412 58.6222 39.7396 63.1902 39.7396H224.819C229.387 39.7396 233.084 36.0412 233.084 31.4726C233.084 26.913 229.377 23.2056 224.809 23.2056Z" fill="#828282"/>
<path d="M202.432 20.5405H85.5591V42.4136H202.432V20.5405Z" fill="#1E1C1C"/>
<path d="M89.4379 91.082H21.1357V118.938H89.4379V91.082Z" fill="#828282"/>
<path d="M216.136 113.734H279.272C284.094 113.734 288 109.828 288 105.005C288 100.183 284.094 96.2759 279.272 96.2759H216.136C211.314 96.2759 207.408 100.183 207.408 105.005C207.408 109.828 211.323 113.734 216.136 113.734Z" fill="url(#paint3_linear_377_11772)"/>
<path d="M198.562 118.938H266.873V91.082H198.562V118.938Z" fill="#828282"/>
<path d="M144 82.3254C154.066 82.3254 162.227 74.1639 162.227 64.0963C162.227 54.0286 154.066 45.8672 144 45.8672C133.934 45.8672 125.773 54.0286 125.773 64.0963C125.773 74.1639 133.934 82.3254 144 82.3254Z" fill="#1E1C1C"/>
<path d="M144 77.9384C151.644 77.9384 157.84 71.7413 157.84 64.0967C157.84 56.4521 151.644 50.2549 144 50.2549C136.356 50.2549 130.16 56.4521 130.16 64.0967C130.16 71.7413 136.356 77.9384 144 77.9384Z" fill="#BDBDBD"/>
<path d="M156 18.936H132V42.9393H156V18.936Z" fill="#4F4F4F"/>
<path d="M152.003 22.9429H135.997V38.9511H152.003V22.9429Z" fill="#BDBDBD"/>
<path d="M89.4381 50.2456H88.3687V55.1859H89.4381V50.2456Z" fill="url(#paint4_linear_377_11772)"/>
<path d="M96.4626 50.2456H95.3931V55.1859H96.4626V50.2456Z" fill="url(#paint5_linear_377_11772)"/>
<path d="M103.486 50.2456H102.417V55.1859H103.486V50.2456Z" fill="url(#paint6_linear_377_11772)"/>
<path d="M110.51 50.2456H109.441V55.1859H110.51V50.2456Z" fill="url(#paint7_linear_377_11772)"/>
<path d="M117.535 50.2456H116.465V55.1859H117.535V50.2456Z" fill="url(#paint8_linear_377_11772)"/>
<path d="M124.559 50.2456H123.489V55.1859H124.559V50.2456Z" fill="url(#paint9_linear_377_11772)"/>
<path d="M164.474 50.2456H163.405V55.1859H164.474V50.2456Z" fill="url(#paint10_linear_377_11772)"/>
<path d="M171.499 50.2456H170.429V55.1859H171.499V50.2456Z" fill="url(#paint11_linear_377_11772)"/>
<path d="M178.523 50.2456H177.453V55.1859H178.523V50.2456Z" fill="url(#paint12_linear_377_11772)"/>
<path d="M185.547 50.2456H184.478V55.1859H185.547V50.2456Z" fill="url(#paint13_linear_377_11772)"/>
<path d="M192.571 50.2456H191.501V55.1859H192.571V50.2456Z" fill="url(#paint14_linear_377_11772)"/>
<path d="M199.586 50.2456H198.517V55.1859H199.586V50.2456Z" fill="url(#paint15_linear_377_11772)"/>
<path d="M126.227 76.2795C117.136 63.5618 102.254 55.2676 85.4231 55.2676C57.7433 55.2676 35.3022 77.7117 35.3022 105.395C35.3022 128.837 51.3989 148.525 73.1331 154L126.227 76.2795Z" fill="url(#paint16_linear_377_11772)"/>
<path d="M85.4229 146.694C108.228 146.694 126.716 128.204 126.716 105.395C126.716 82.5867 108.228 64.0967 85.4229 64.0967C62.6174 64.0967 44.1299 82.5867 44.1299 105.395C44.1299 128.204 62.6174 146.694 85.4229 146.694Z" fill="#1E1C1C"/>
<path d="M85.4229 140.032C104.549 140.032 120.054 124.524 120.054 105.395C120.054 86.2664 104.549 70.7593 85.4229 70.7593C66.2965 70.7593 50.7915 86.2664 50.7915 105.395C50.7915 124.524 66.2965 140.032 85.4229 140.032Z" fill="url(#paint17_linear_377_11772)"/>
<path d="M86.2297 57.7061H84.6255V64.0967H86.2297V57.7061Z" fill="#4F4F4F"/>
<path d="M73.4233 65.8644L71.9006 66.3629L69.9248 60.2896L71.4475 59.791L73.4233 65.8644Z" fill="#4F4F4F"/>
<path d="M61.7949 71.5116L60.5079 72.4543L56.7466 67.2875L58.0427 66.3447L61.7949 71.5116Z" fill="#4F4F4F"/>
<path d="M52.4867 80.4676L51.5441 81.7639L46.3779 78.0111L47.3205 76.7148L52.4867 80.4676Z" fill="#4F4F4F"/>
<path d="M46.3957 91.8706L45.8972 93.3935L39.8247 91.4174L40.3232 89.8945L46.3957 91.8706Z" fill="#4F4F4F"/>
<path d="M44.13 104.598H37.7402V106.202H44.13V104.598Z" fill="#4F4F4F"/>
<path d="M45.8972 117.397L46.3957 118.92L40.3232 120.896L39.8247 119.373L45.8972 117.397Z" fill="#4F4F4F"/>
<path d="M51.5441 129.027L52.4867 130.314L47.3205 134.076L46.3779 132.78L51.5441 129.027Z" fill="#4F4F4F"/>
<path d="M60.5079 138.336L61.7949 139.279L58.0427 144.446L56.7466 143.503L60.5079 138.336Z" fill="#4F4F4F"/>
<path d="M110.347 72.4543L109.051 71.5116L112.804 66.3447L114.1 67.2875L110.347 72.4543Z" fill="#4F4F4F"/>
<path d="M98.9455 66.3629L97.4229 65.8644L99.3987 59.791L100.921 60.2896L98.9455 66.3629Z" fill="#4F4F4F"/>
<path d="M112.967 84.3473C113.429 84.9546 113.873 85.571 114.29 86.2056C118.958 93.2126 120.906 101.57 119.782 109.991C118.559 119.174 113.828 127.323 106.468 132.943C99.1088 138.563 90.0091 140.983 80.8278 139.76C72.4079 138.636 64.858 134.566 59.3203 128.22C58.8218 127.649 58.3414 127.06 57.8792 126.453C56.0484 124.051 54.5529 121.467 53.42 118.757C52.9215 117.578 52.5045 116.382 52.142 115.158C51.5257 113.064 51.1088 110.907 50.9094 108.722C50.6647 106.121 50.71 103.465 51.0635 100.809C52.287 91.6262 57.0181 83.4771 64.3777 77.857C71.7372 72.2369 80.8369 69.8166 90.0181 71.0403C92.6737 71.3939 95.2477 72.0465 97.6949 72.9711C99.7523 73.7416 101.719 74.7115 103.577 75.8537C104.656 76.5245 105.707 77.2496 106.713 78.0292C109.033 79.824 111.136 81.9452 112.967 84.3473Z" fill="#F2F2F2"/>
<path opacity="0.4" d="M103.577 75.8357L52.1418 115.149C51.5255 113.055 51.1086 110.898 50.9092 108.713L97.6947 72.9531C99.7521 73.7327 101.719 74.6935 103.577 75.8357Z" fill="white"/>
<path opacity="0.4" d="M112.967 84.3477C113.429 84.955 113.873 85.5714 114.29 86.2059L59.3202 128.221C58.8217 127.65 58.3414 127.06 57.8791 126.453C56.0483 124.051 54.5529 121.468 53.4199 118.757L106.713 78.0205C109.033 79.8244 111.136 81.9455 112.967 84.3477Z" fill="white"/>
<path d="M161.773 76.2795C170.864 63.5618 185.746 55.2676 202.577 55.2676C230.257 55.2676 252.698 77.7117 252.698 105.395C252.698 128.837 236.601 148.525 214.867 154L161.773 76.2795Z" fill="url(#paint18_linear_377_11772)"/>
<path d="M202.577 146.694C225.383 146.694 243.87 128.204 243.87 105.395C243.87 82.5867 225.383 64.0967 202.577 64.0967C179.772 64.0967 161.284 82.5867 161.284 105.395C161.284 128.204 179.772 146.694 202.577 146.694Z" fill="#1E1C1C"/>
<path d="M202.577 140.032C221.704 140.032 237.209 124.524 237.209 105.395C237.209 86.2664 221.704 70.7593 202.577 70.7593C183.451 70.7593 167.946 86.2664 167.946 105.395C167.946 124.524 183.451 140.032 202.577 140.032Z" fill="url(#paint19_linear_377_11772)"/>
<path d="M203.384 57.7061H201.78V64.0967H203.384V57.7061Z" fill="#4F4F4F"/>
<path d="M214.577 65.8644L216.1 66.3629L218.076 60.2896L216.553 59.791L214.577 65.8644Z" fill="#4F4F4F"/>
<path d="M226.206 71.5116L227.502 72.4543L231.254 67.2875L229.958 66.3447L226.206 71.5116Z" fill="#4F4F4F"/>
<path d="M235.514 80.4676L236.456 81.7639L241.622 78.0111L240.68 76.7148L235.514 80.4676Z" fill="#4F4F4F"/>
<path d="M241.604 91.8706L242.103 93.3935L248.175 91.4174L247.677 89.8945L241.604 91.8706Z" fill="#4F4F4F"/>
<path d="M250.269 104.598H243.879V106.202H250.269V104.598Z" fill="#4F4F4F"/>
<path d="M242.103 117.397L241.604 118.92L247.677 120.896L248.175 119.373L242.103 117.397Z" fill="#4F4F4F"/>
<path d="M236.456 129.027L235.514 130.314L240.68 134.076L241.622 132.78L236.456 129.027Z" fill="#4F4F4F"/>
<path d="M227.502 138.336L226.206 139.279L229.958 144.446L231.254 143.503L227.502 138.336Z" fill="#4F4F4F"/>
<path d="M177.662 72.4543L178.949 71.5116L175.196 66.3447L173.9 67.2875L177.662 72.4543Z" fill="#4F4F4F"/>
<path d="M189.055 66.3629L190.577 65.8644L188.601 59.791L187.088 60.2896L189.055 66.3629Z" fill="#4F4F4F"/>
<path d="M230.121 84.3473C230.583 84.9546 231.027 85.571 231.444 86.2056C236.112 93.2126 238.061 101.57 236.937 109.991C235.713 119.174 230.982 127.323 223.623 132.943C216.263 138.563 207.163 140.983 197.982 139.76C189.562 138.636 182.012 134.566 176.475 128.22C175.976 127.649 175.496 127.06 175.033 126.453C173.203 124.051 171.707 121.467 170.574 118.757C170.076 117.578 169.659 116.382 169.296 115.158C168.68 113.064 168.263 110.907 168.064 108.722C167.819 106.121 167.864 103.465 168.218 100.809C169.441 91.6262 174.172 83.4771 181.532 77.857C188.891 72.2369 197.991 69.8166 207.172 71.0403C209.828 71.3939 212.402 72.0465 214.849 72.9711C216.907 73.7416 218.873 74.7115 220.731 75.8537C221.81 76.5245 222.861 77.2496 223.867 78.0292C226.188 79.824 228.29 81.9452 230.121 84.3473Z" fill="#E0E0E0"/>
<path opacity="0.4" d="M220.731 75.8357L169.296 115.149C168.68 113.055 168.263 110.898 168.063 108.713L214.849 72.9531C216.906 73.7327 218.873 74.6935 220.731 75.8357Z" fill="white"/>
<path opacity="0.4" d="M230.121 84.3477C230.583 84.955 231.027 85.5714 231.444 86.2059L176.475 128.221C175.976 127.65 175.496 127.06 175.033 126.453C173.203 124.051 171.707 121.468 170.574 118.757L223.867 78.0205C226.188 79.8244 228.29 81.9455 230.121 84.3477Z" fill="white"/>
<defs>
<linearGradient id="paint0_linear_377_11772" x1="0" y1="105.009" x2="80.5905" y2="105.009" gradientUnits="userSpaceOnUse">
<stop stop-color="#FCE1AA"/>
<stop offset="1" stop-color="#FCCE79"/>
</linearGradient>
<linearGradient id="paint1_linear_377_11772" x1="100.89" y1="45.5335" x2="187.112" y2="45.5335" gradientUnits="userSpaceOnUse">
<stop stop-color="#FCCE79"/>
<stop offset="1" stop-color="#E3A76B"/>
</linearGradient>
<linearGradient id="paint2_linear_377_11772" x1="136.533" y1="51.4375" x2="151.469" y2="51.4375" gradientUnits="userSpaceOnUse">
<stop stop-color="#FCE1AA"/>
<stop offset="1" stop-color="#FCCE79"/>
</linearGradient>
<linearGradient id="paint3_linear_377_11772" x1="288.002" y1="105.009" x2="207.412" y2="105.009" gradientUnits="userSpaceOnUse">
<stop stop-color="#FCE1AA"/>
<stop offset="1" stop-color="#FCCE79"/>
</linearGradient>
<linearGradient id="paint4_linear_377_11772" x1="88.3696" y1="52.7189" x2="89.4365" y2="52.7189" gradientUnits="userSpaceOnUse">
<stop offset="0.0291002" stop-color="#FDF7E2"/>
<stop offset="1" stop-color="#FCE1AA"/>
</linearGradient>
<linearGradient id="paint5_linear_377_11772" x1="95.3932" y1="52.7189" x2="96.4601" y2="52.7189" gradientUnits="userSpaceOnUse">
<stop offset="0.0291002" stop-color="#FDF7E2"/>
<stop offset="1" stop-color="#FCE1AA"/>
</linearGradient>
<linearGradient id="paint6_linear_377_11772" x1="102.416" y1="52.7189" x2="103.483" y2="52.7189" gradientUnits="userSpaceOnUse">
<stop offset="0.0291002" stop-color="#FDF7E2"/>
<stop offset="1" stop-color="#FCE1AA"/>
</linearGradient>
<linearGradient id="paint7_linear_377_11772" x1="109.439" y1="52.7189" x2="110.506" y2="52.7189" gradientUnits="userSpaceOnUse">
<stop offset="0.0291002" stop-color="#FDF7E2"/>
<stop offset="1" stop-color="#FCE1AA"/>
</linearGradient>
<linearGradient id="paint8_linear_377_11772" x1="116.463" y1="52.7189" x2="117.53" y2="52.7189" gradientUnits="userSpaceOnUse">
<stop offset="0.0291002" stop-color="#FDF7E2"/>
<stop offset="1" stop-color="#FCE1AA"/>
</linearGradient>
<linearGradient id="paint9_linear_377_11772" x1="123.486" y1="52.7189" x2="124.553" y2="52.7189" gradientUnits="userSpaceOnUse">
<stop offset="0.0291002" stop-color="#FDF7E2"/>
<stop offset="1" stop-color="#FCE1AA"/>
</linearGradient>
<linearGradient id="paint10_linear_377_11772" x1="163.404" y1="52.7189" x2="164.471" y2="52.7189" gradientUnits="userSpaceOnUse">
<stop offset="0.0291002" stop-color="#FDF7E2"/>
<stop offset="1" stop-color="#FCE1AA"/>
</linearGradient>
<linearGradient id="paint11_linear_377_11772" x1="170.427" y1="52.7189" x2="171.494" y2="52.7189" gradientUnits="userSpaceOnUse">
<stop offset="0.0291002" stop-color="#FDF7E2"/>
<stop offset="1" stop-color="#FCE1AA"/>
</linearGradient>
<linearGradient id="paint12_linear_377_11772" x1="177.45" y1="52.7189" x2="178.517" y2="52.7189" gradientUnits="userSpaceOnUse">
<stop offset="0.0291002" stop-color="#FDF7E2"/>
<stop offset="1" stop-color="#FCE1AA"/>
</linearGradient>
<linearGradient id="paint13_linear_377_11772" x1="184.474" y1="52.7189" x2="185.541" y2="52.7189" gradientUnits="userSpaceOnUse">
<stop offset="0.0291002" stop-color="#FDF7E2"/>
<stop offset="1" stop-color="#FCE1AA"/>
</linearGradient>
<linearGradient id="paint14_linear_377_11772" x1="191.497" y1="52.7189" x2="192.564" y2="52.7189" gradientUnits="userSpaceOnUse">
<stop offset="0.0291002" stop-color="#FDF7E2"/>
<stop offset="1" stop-color="#FCE1AA"/>
</linearGradient>
<linearGradient id="paint15_linear_377_11772" x1="198.521" y1="52.7189" x2="199.587" y2="52.7189" gradientUnits="userSpaceOnUse">
<stop offset="0.0291002" stop-color="#FDF7E2"/>
<stop offset="1" stop-color="#FCE1AA"/>
</linearGradient>
<linearGradient id="paint16_linear_377_11772" x1="35.3062" y1="104.635" x2="126.226" y2="104.635" gradientUnits="userSpaceOnUse">
<stop stop-color="#FCE1AA"/>
<stop offset="1" stop-color="#FCCE79"/>
</linearGradient>
<linearGradient id="paint17_linear_377_11772" x1="50.7901" y1="105.394" x2="120.057" y2="105.394" gradientUnits="userSpaceOnUse">
<stop stop-color="white"/>
<stop offset="1" stop-color="#E7ECF9"/>
</linearGradient>
<linearGradient id="paint18_linear_377_11772" x1="252.696" y1="104.635" x2="161.776" y2="104.635" gradientUnits="userSpaceOnUse">
<stop stop-color="#FCE1AA"/>
<stop offset="1" stop-color="#FCCE79"/>
</linearGradient>
<linearGradient id="paint19_linear_377_11772" x1="167.193" y1="105.394" x2="236.758" y2="105.394" gradientUnits="userSpaceOnUse">
<stop stop-color="white"/>
<stop offset="1" stop-color="#E7ECF9"/>
</linearGradient>
</defs>
</svg>
