<?xml version="1.0" encoding="UTF-8"?>
<svg xmlns="http://www.w3.org/2000/svg" xmlns:xlink="http://www.w3.org/1999/xlink" width="20px" height="20px" viewBox="0 0 20 20" version="1.1">
<g id="surface1">
<path style=" stroke:none;fill-rule:evenodd;fill:rgb(0%,0%,0%);fill-opacity:1;" d="M 13.332031 10 C 13.332031 11.839844 11.839844 13.332031 10 13.332031 C 8.160156 13.332031 6.667969 11.839844 6.667969 10 C 6.667969 8.160156 8.160156 6.667969 10 6.667969 C 11.839844 6.667969 13.332031 8.160156 13.332031 10 Z M 11.667969 10 C 11.667969 10.921875 10.921875 11.667969 10 11.667969 C 9.078125 11.667969 8.332031 10.921875 8.332031 10 C 8.332031 9.078125 9.078125 8.332031 10 8.332031 C 10.921875 8.332031 11.667969 9.078125 11.667969 10 Z M 11.667969 10 "/>
<path style=" stroke:none;fill-rule:evenodd;fill:rgb(0%,0%,0%);fill-opacity:1;" d="M 10 2.5 C 14.660156 2.5 18.574219 5.6875 19.683594 10 C 18.574219 14.3125 14.660156 17.5 10 17.5 C 5.339844 17.5 1.425781 14.3125 0.316406 10 C 1.425781 5.6875 5.339844 2.5 10 2.5 Z M 10 15.832031 C 6.269531 15.832031 3.109375 13.382812 2.046875 10 C 3.109375 6.617188 6.269531 4.167969 10 4.167969 C 13.730469 4.167969 16.890625 6.617188 17.953125 10 C 16.890625 13.382812 13.730469 15.832031 10 15.832031 Z M 10 15.832031 "/>
</g>
</svg>
