<svg width="184" height="127" viewBox="0 0 184 127" fill="none" xmlns="http://www.w3.org/2000/svg">
<g clip-path="url(#clip0_203_4709)">
<path d="M66.989 0C2.37657 0 -50 63.511 -50 63.511C-50 63.511 2.37657 127.022 66.989 127.022C131.601 127.022 184 63.511 184 63.511C184 63.511 131.601 0 66.989 0ZM66.989 116.107C56.5693 116.086 46.3899 112.983 37.7368 107.19C29.0837 101.397 22.3453 93.1754 18.3729 83.5628C14.4005 73.9501 13.3725 63.3782 15.4186 53.1828C17.4647 42.9873 22.4932 33.6258 29.8687 26.2811C37.2442 18.9363 46.6358 13.9379 56.8569 11.9173C67.078 9.89676 77.6699 10.9447 87.2943 14.9288C96.9188 18.9129 105.144 25.6544 110.931 34.3014C116.717 42.9485 119.806 53.1131 119.806 63.511C119.809 70.4281 118.444 77.2778 115.789 83.6676C113.134 90.0573 109.242 95.8615 104.336 100.748C99.4294 105.634 93.6049 109.505 87.1962 112.141C80.7875 114.777 73.9206 116.125 66.989 116.107Z" fill="black" fill-opacity="0.05"/>
<path d="M104.115 63.5111C104.105 71.7227 101.358 79.6977 96.3072 86.1804C91.2562 92.663 84.1879 97.2849 76.2154 99.3183C68.2428 101.352 59.819 100.681 52.2704 97.4119C44.7218 94.1428 38.4773 88.4609 34.5203 81.2611C30.5632 74.0613 29.1184 65.7525 30.4134 57.6432C31.7083 49.534 35.6695 42.0849 41.6731 36.469C47.6767 30.8532 55.3816 27.3896 63.5746 26.6237C71.7675 25.8579 79.983 27.8332 86.9273 32.2387C84.5298 32.9382 82.3298 34.1881 80.5033 35.8884C78.6768 37.5887 77.2746 39.6922 76.409 42.0304C75.5435 44.3685 75.2386 46.8765 75.5187 49.3534C75.7988 51.8303 76.6562 54.2073 78.0222 56.2941C79.3883 58.381 81.225 60.1197 83.3853 61.371C85.5456 62.6223 87.9694 63.3514 90.4628 63.5C92.9562 63.6487 95.4499 63.2126 97.7441 62.2269C100.038 61.2411 102.069 59.733 103.675 57.8232C103.978 59.7039 104.125 61.6063 104.115 63.5111Z" fill="black" fill-opacity="0.05"/>
</g>
<defs>
<clipPath id="clip0_203_4709">
<rect width="234" height="127" fill="white" transform="translate(-50)"/>
</clipPath>
</defs>
</svg>
