<?xml version="1.0" encoding="UTF-8"?>
<svg xmlns="http://www.w3.org/2000/svg" xmlns:xlink="http://www.w3.org/1999/xlink" width="17px" height="17px" viewBox="0 0 17 17" version="1.1">
<g id="surface1">
<path style=" stroke:none;fill-rule:nonzero;fill:#607d8b;fill-opacity:1;" d="M 8.5 3.433594 C 5.253906 3.433594 2.304688 5.210938 0.132812 8.097656 C -0.0429688 8.332031 -0.0429688 8.664062 0.132812 8.898438 C 2.304688 11.789062 5.253906 13.566406 8.5 13.566406 C 11.746094 13.566406 14.695312 11.789062 16.867188 8.902344 C 17.042969 8.667969 17.042969 8.335938 16.867188 8.101562 C 14.695312 5.210938 11.746094 3.433594 8.5 3.433594 Z M 8.734375 12.066406 C 6.578125 12.203125 4.796875 10.425781 4.933594 8.265625 C 5.042969 6.488281 6.488281 5.042969 8.265625 4.933594 C 10.421875 4.796875 12.203125 6.574219 12.066406 8.734375 C 11.953125 10.511719 10.511719 11.953125 8.734375 12.066406 Z M 8.625 10.417969 C 7.464844 10.492188 6.503906 9.535156 6.582031 8.375 C 6.640625 7.414062 7.417969 6.640625 8.378906 6.578125 C 9.539062 6.503906 10.5 7.460938 10.421875 8.621094 C 10.359375 9.585938 9.582031 10.359375 8.625 10.417969 Z M 8.625 10.417969 "/>
</g>
</svg>
