<?xml version="1.0" encoding="UTF-8"?>
<svg xmlns="http://www.w3.org/2000/svg" xmlns:xlink="http://www.w3.org/1999/xlink" width="50px" height="50px" viewBox="0 0 50 50" version="1.1">
<g id="surface1">
<path style=" stroke:none;fill-rule:nonzero;fill:rgb(30.196078%,30.196078%,30.196078%);fill-opacity:1;" d="M 25 6.816406 C 21.234375 6.816406 18.183594 9.871094 18.183594 13.636719 L 11.363281 13.636719 L 11.363281 43.183594 L 31.816406 43.183594 L 31.816406 40.910156 L 13.636719 40.910156 L 13.636719 15.910156 L 18.183594 15.910156 L 18.183594 18.382812 C 16.820312 18.863281 15.910156 20.148438 15.910156 21.589844 C 15.910156 23.472656 17.433594 25 19.316406 25 C 21.199219 25 22.726562 23.472656 22.726562 21.589844 C 22.726562 20.148438 21.816406 18.863281 20.453125 18.382812 L 20.453125 15.910156 L 29.546875 15.910156 L 29.546875 18.382812 C 28.183594 18.863281 27.273438 20.148438 27.273438 21.589844 C 27.273438 23.472656 28.800781 25 30.683594 25 C 32.566406 25 34.089844 23.472656 34.089844 21.589844 C 34.089844 20.148438 33.179688 18.863281 31.816406 18.382812 L 31.816406 15.910156 L 36.363281 15.910156 L 36.363281 29.546875 L 38.636719 29.546875 L 38.636719 13.636719 L 31.816406 13.636719 C 31.816406 9.871094 28.765625 6.816406 25 6.816406 Z M 25 9.089844 C 27.511719 9.089844 29.546875 11.125 29.546875 13.636719 L 20.453125 13.636719 C 20.453125 11.125 22.488281 9.089844 25 9.089844 Z M 19.316406 20.453125 C 19.945312 20.453125 20.453125 20.964844 20.453125 21.589844 C 20.453125 22.21875 19.945312 22.726562 19.316406 22.726562 C 18.691406 22.726562 18.183594 22.21875 18.183594 21.589844 C 18.183594 20.964844 18.691406 20.453125 19.316406 20.453125 Z M 30.683594 20.453125 C 31.308594 20.453125 31.816406 20.964844 31.816406 21.589844 C 31.816406 22.21875 31.308594 22.726562 30.683594 22.726562 C 30.054688 22.726562 29.546875 22.21875 29.546875 21.589844 C 29.546875 20.964844 30.054688 20.453125 30.683594 20.453125 Z M 36.363281 31.816406 L 36.363281 36.363281 L 31.816406 36.363281 L 31.816406 38.636719 L 36.363281 38.636719 L 36.363281 43.183594 L 38.636719 43.183594 L 38.636719 38.636719 L 43.183594 38.636719 L 43.183594 36.363281 L 38.636719 36.363281 L 38.636719 31.816406 Z M 36.363281 31.816406 "/>
</g>
</svg>
