<svg xmlns="http://www.w3.org/2000/svg" xmlns:xlink="http://www.w3.org/1999/xlink" width="25px" height="25px" viewBox="0 0 35 35" version="1.1">
  <g id="surface1">
  <path style="stroke:none;fill-rule:nonzero;fill: #ffff;fill-opacity:1;" d="M 34.402344 28.285156 L 30.769531 5.410156 C 30.449219 3.378906 28.71875 1.902344 26.664062 1.902344 L 8.335938 1.902344 C 6.28125 1.902344 4.550781 3.378906 4.230469 5.410156 L 0.597656 28.285156 C 0.40625 29.488281 0.753906 30.710938 1.542969 31.636719 C 2.335938 32.566406 3.488281 33.097656 4.707031 33.097656 L 30.292969 33.097656 C 31.511719 33.097656 32.664062 32.566406 33.457031 31.636719 C 34.246094 30.710938 34.59375 29.488281 34.402344 28.285156 Z M 30.960938 29.507812 C 30.863281 29.621094 30.644531 29.816406 30.292969 29.816406 L 4.707031 29.816406 C 4.355469 29.816406 4.136719 29.621094 4.039062 29.507812 C 3.941406 29.390625 3.785156 29.148438 3.839844 28.800781 L 7.46875 5.925781 C 7.539062 5.496094 7.902344 5.183594 8.335938 5.183594 L 26.664062 5.183594 C 27.097656 5.183594 27.460938 5.496094 27.53125 5.925781 L 31.160156 28.796875 C 31.214844 29.148438 31.058594 29.390625 30.960938 29.507812 Z M 30.960938 29.507812 "></path>
  <path style="stroke:none;fill-rule:nonzero;fill: #ffff;fill-opacity:1;" d="M 23.269531 7.019531 C 22.363281 7.019531 21.628906 7.753906 21.628906 8.660156 L 21.628906 13.214844 C 21.628906 15.492188 19.777344 17.34375 17.5 17.34375 C 15.222656 17.34375 13.371094 15.492188 13.371094 13.214844 L 13.371094 8.660156 C 13.371094 7.753906 12.636719 7.019531 11.730469 7.019531 C 10.824219 7.019531 10.089844 7.753906 10.089844 8.660156 L 10.089844 13.214844 C 10.089844 17.300781 13.414062 20.625 17.5 20.625 C 21.585938 20.625 24.910156 17.300781 24.910156 13.214844 L 24.910156 8.660156 C 24.910156 7.753906 24.175781 7.019531 23.269531 7.019531 Z M 23.269531 7.019531 "></path>
  </g>
</svg>