<svg width="22" height="22" viewBox="0 0 22 22" fill="none" xmlns="http://www.w3.org/2000/svg">
<path fill-rule="evenodd" clip-rule="evenodd" d="M0.517944 1.81057L1.81044 0.518066L21.4821 20.1897L20.1896 21.4822L17.5863 18.8789C17.2563 19.3464 16.7154 19.6489 16.1013 19.6489C15.0929 19.6489 14.2771 18.8239 14.2771 17.8156C14.2771 17.2014 14.5796 16.6606 15.0379 16.3306L13.7729 15.0656H6.93461C5.92628 15.0656 5.10128 14.2406 5.10128 13.2322C5.10128 12.9114 5.18378 12.6089 5.33044 12.3522L6.56794 10.1064L4.54211 5.83473L0.517944 1.81057ZM7.94294 11.3989L6.93461 13.2322H11.9396L10.1063 11.3989H7.94294ZM18.8513 3.1489H7.04461L8.87794 4.98223H17.3021L14.7721 9.56557H13.4521L15.2304 11.3439C15.7254 11.2156 16.1379 10.8947 16.3763 10.4547L19.6579 4.50557C19.9971 3.90057 19.5479 3.1489 18.8513 3.1489ZM5.11045 17.8156C5.11045 16.8072 5.92628 15.9822 6.93461 15.9822C7.94295 15.9822 8.76795 16.8072 8.76795 17.8156C8.76795 18.8239 7.94295 19.6489 6.93461 19.6489C5.92628 19.6489 5.11045 18.8239 5.11045 17.8156Z" fill="white"/>
</svg>
