<svg width="17" height="17" viewBox="0 0 17 17" fill="none" xmlns="http://www.w3.org/2000/svg">
<path fill-rule="evenodd" clip-rule="evenodd" d="M6.1 8.1C7.644 8.1 8.9 6.844 8.9 5.3C8.9 3.756 7.644 2.5 6.1 2.5C4.556 2.5 3.3 3.756 3.3 5.3C3.3 6.844 4.556 8.1 6.1 8.1ZM0.5 12.3C0.5 10.436 4.228 9.5 6.1 9.5C7.972 9.5 11.7 10.436 11.7 12.3V13.7H0.5V12.3ZM6.10007 11.1C4.66807 11.1 3.04407 11.636 2.37207 12.1H9.82807C9.15607 11.636 7.53207 11.1 6.10007 11.1ZM7.3 5.3C7.3 4.636 6.764 4.1 6.1 4.1C5.436 4.1 4.9 4.636 4.9 5.3C4.9 5.964 5.436 6.5 6.1 6.5C6.764 6.5 7.3 5.964 7.3 5.3ZM11.732 9.548C12.66 10.22 13.3 11.116 13.3 12.3V13.7H16.5V12.3C16.5 10.684 13.7 9.764 11.732 9.548ZM13.7 5.3C13.7 6.844 12.444 8.1 10.9 8.1C10.468 8.1 10.068 7.996 9.7 7.82C10.204 7.108 10.5 6.236 10.5 5.3C10.5 4.364 10.204 3.492 9.7 2.78C10.068 2.604 10.468 2.5 10.9 2.5C12.444 2.5 13.7 3.756 13.7 5.3Z" fill="#1E1C1C"/>
</svg>
